%TF.GenerationSoftware,KiCad,Pcbnew,8.0.8*%
%TF.CreationDate,2025-02-20T13:11:00+01:00*%
%TF.ProjectId,KiCAD_BMS_EK_AW,4b694341-445f-4424-9d53-5f454b5f4157,rev?*%
%TF.SameCoordinates,Original*%
%TF.FileFunction,Copper,L2,Bot*%
%TF.FilePolarity,Positive*%
%FSLAX46Y46*%
G04 Gerber Fmt 4.6, Leading zero omitted, Abs format (unit mm)*
G04 Created by KiCad (PCBNEW 8.0.8) date 2025-02-20 13:11:00*
%MOMM*%
%LPD*%
G01*
G04 APERTURE LIST*
G04 Aperture macros list*
%AMRoundRect*
0 Rectangle with rounded corners*
0 $1 Rounding radius*
0 $2 $3 $4 $5 $6 $7 $8 $9 X,Y pos of 4 corners*
0 Add a 4 corners polygon primitive as box body*
4,1,4,$2,$3,$4,$5,$6,$7,$8,$9,$2,$3,0*
0 Add four circle primitives for the rounded corners*
1,1,$1+$1,$2,$3*
1,1,$1+$1,$4,$5*
1,1,$1+$1,$6,$7*
1,1,$1+$1,$8,$9*
0 Add four rect primitives between the rounded corners*
20,1,$1+$1,$2,$3,$4,$5,0*
20,1,$1+$1,$4,$5,$6,$7,0*
20,1,$1+$1,$6,$7,$8,$9,0*
20,1,$1+$1,$8,$9,$2,$3,0*%
G04 Aperture macros list end*
%ADD10C,0.250000*%
%TA.AperFunction,NonConductor*%
%ADD11C,0.250000*%
%TD*%
%TA.AperFunction,SMDPad,CuDef*%
%ADD12RoundRect,0.250000X1.150000X-0.250000X1.150000X0.250000X-1.150000X0.250000X-1.150000X-0.250000X0*%
%TD*%
%TA.AperFunction,SMDPad,CuDef*%
%ADD13RoundRect,0.150000X0.700000X-0.150000X0.700000X0.150000X-0.700000X0.150000X-0.700000X-0.150000X0*%
%TD*%
%TA.AperFunction,SMDPad,CuDef*%
%ADD14RoundRect,0.150000X-0.700000X0.150000X-0.700000X-0.150000X0.700000X-0.150000X0.700000X0.150000X0*%
%TD*%
%TA.AperFunction,SMDPad,CuDef*%
%ADD15RoundRect,0.250000X-1.150000X0.250000X-1.150000X-0.250000X1.150000X-0.250000X1.150000X0.250000X0*%
%TD*%
%TA.AperFunction,SMDPad,CuDef*%
%ADD16RoundRect,0.249999X-0.450001X-1.425001X0.450001X-1.425001X0.450001X1.425001X-0.450001X1.425001X0*%
%TD*%
%TA.AperFunction,SMDPad,CuDef*%
%ADD17RoundRect,0.250000X0.625000X-0.400000X0.625000X0.400000X-0.625000X0.400000X-0.625000X-0.400000X0*%
%TD*%
%TA.AperFunction,ComponentPad*%
%ADD18C,3.800000*%
%TD*%
%TA.AperFunction,ComponentPad*%
%ADD19C,1.500000*%
%TD*%
%TA.AperFunction,SMDPad,CuDef*%
%ADD20RoundRect,0.250000X-0.400000X-0.625000X0.400000X-0.625000X0.400000X0.625000X-0.400000X0.625000X0*%
%TD*%
%TA.AperFunction,SMDPad,CuDef*%
%ADD21RoundRect,0.250000X-0.412500X-1.100000X0.412500X-1.100000X0.412500X1.100000X-0.412500X1.100000X0*%
%TD*%
%TA.AperFunction,SMDPad,CuDef*%
%ADD22RoundRect,0.250000X-1.100000X0.412500X-1.100000X-0.412500X1.100000X-0.412500X1.100000X0.412500X0*%
%TD*%
%TA.AperFunction,SMDPad,CuDef*%
%ADD23RoundRect,0.250000X-0.625000X0.400000X-0.625000X-0.400000X0.625000X-0.400000X0.625000X0.400000X0*%
%TD*%
%TA.AperFunction,SMDPad,CuDef*%
%ADD24RoundRect,0.250000X1.100000X-0.412500X1.100000X0.412500X-1.100000X0.412500X-1.100000X-0.412500X0*%
%TD*%
%TA.AperFunction,SMDPad,CuDef*%
%ADD25RoundRect,0.100000X-0.637500X-0.100000X0.637500X-0.100000X0.637500X0.100000X-0.637500X0.100000X0*%
%TD*%
%TA.AperFunction,Conductor*%
%ADD26C,0.400000*%
%TD*%
%TA.AperFunction,Conductor*%
%ADD27C,4.000000*%
%TD*%
%TA.AperFunction,Conductor*%
%ADD28C,0.500000*%
%TD*%
%TA.AperFunction,Conductor*%
%ADD29C,0.200000*%
%TD*%
G04 APERTURE END LIST*
D10*
D11*
X174624857Y-89200187D02*
X174624857Y-89914473D01*
X175053428Y-89057330D02*
X173553428Y-89557330D01*
X173553428Y-89557330D02*
X175053428Y-90057330D01*
X175053428Y-90557329D02*
X173553428Y-90557329D01*
X173553428Y-90557329D02*
X173553428Y-90914472D01*
X173553428Y-90914472D02*
X173624857Y-91128758D01*
X173624857Y-91128758D02*
X173767714Y-91271615D01*
X173767714Y-91271615D02*
X173910571Y-91343044D01*
X173910571Y-91343044D02*
X174196285Y-91414472D01*
X174196285Y-91414472D02*
X174410571Y-91414472D01*
X174410571Y-91414472D02*
X174696285Y-91343044D01*
X174696285Y-91343044D02*
X174839142Y-91271615D01*
X174839142Y-91271615D02*
X174982000Y-91128758D01*
X174982000Y-91128758D02*
X175053428Y-90914472D01*
X175053428Y-90914472D02*
X175053428Y-90557329D01*
X174910571Y-92914472D02*
X174982000Y-92843044D01*
X174982000Y-92843044D02*
X175053428Y-92628758D01*
X175053428Y-92628758D02*
X175053428Y-92485901D01*
X175053428Y-92485901D02*
X174982000Y-92271615D01*
X174982000Y-92271615D02*
X174839142Y-92128758D01*
X174839142Y-92128758D02*
X174696285Y-92057329D01*
X174696285Y-92057329D02*
X174410571Y-91985901D01*
X174410571Y-91985901D02*
X174196285Y-91985901D01*
X174196285Y-91985901D02*
X173910571Y-92057329D01*
X173910571Y-92057329D02*
X173767714Y-92128758D01*
X173767714Y-92128758D02*
X173624857Y-92271615D01*
X173624857Y-92271615D02*
X173553428Y-92485901D01*
X173553428Y-92485901D02*
X173553428Y-92628758D01*
X173553428Y-92628758D02*
X173624857Y-92843044D01*
X173624857Y-92843044D02*
X173696285Y-92914472D01*
D10*
D11*
X175053428Y-102021615D02*
X173553428Y-102021615D01*
X173696285Y-102664473D02*
X173624857Y-102735901D01*
X173624857Y-102735901D02*
X173553428Y-102878759D01*
X173553428Y-102878759D02*
X173553428Y-103235901D01*
X173553428Y-103235901D02*
X173624857Y-103378759D01*
X173624857Y-103378759D02*
X173696285Y-103450187D01*
X173696285Y-103450187D02*
X173839142Y-103521616D01*
X173839142Y-103521616D02*
X173982000Y-103521616D01*
X173982000Y-103521616D02*
X174196285Y-103450187D01*
X174196285Y-103450187D02*
X175053428Y-102593044D01*
X175053428Y-102593044D02*
X175053428Y-103521616D01*
X174910571Y-105021615D02*
X174982000Y-104950187D01*
X174982000Y-104950187D02*
X175053428Y-104735901D01*
X175053428Y-104735901D02*
X175053428Y-104593044D01*
X175053428Y-104593044D02*
X174982000Y-104378758D01*
X174982000Y-104378758D02*
X174839142Y-104235901D01*
X174839142Y-104235901D02*
X174696285Y-104164472D01*
X174696285Y-104164472D02*
X174410571Y-104093044D01*
X174410571Y-104093044D02*
X174196285Y-104093044D01*
X174196285Y-104093044D02*
X173910571Y-104164472D01*
X173910571Y-104164472D02*
X173767714Y-104235901D01*
X173767714Y-104235901D02*
X173624857Y-104378758D01*
X173624857Y-104378758D02*
X173553428Y-104593044D01*
X173553428Y-104593044D02*
X173553428Y-104735901D01*
X173553428Y-104735901D02*
X173624857Y-104950187D01*
X173624857Y-104950187D02*
X173696285Y-105021615D01*
D12*
%TO.P,J3,MP*%
%TO.N,N/C*%
X171350000Y-88400000D03*
X171350000Y-93350000D03*
D13*
%TO.P,J3,2,Pin_2*%
%TO.N,/Cell_voltage*%
X168000000Y-90250000D03*
%TO.P,J3,1,Pin_1*%
%TO.N,/Temperature*%
X168000000Y-91500000D03*
%TD*%
D12*
%TO.P,J2,MP*%
%TO.N,N/C*%
X171350000Y-101000000D03*
X171350000Y-105950000D03*
D13*
%TO.P,J2,2,Pin_2*%
%TO.N,/SDA*%
X168000000Y-102850000D03*
%TO.P,J2,1,Pin_1*%
%TO.N,/SCL*%
X168000000Y-104100000D03*
%TD*%
D14*
%TO.P,J1,1,Pin_1*%
%TO.N,GND*%
X123250000Y-93500000D03*
%TO.P,J1,2,Pin_2*%
X123250000Y-94750000D03*
%TO.P,J1,3,Pin_3*%
%TO.N,Net-(J1-Pin_3)*%
X123250000Y-96000000D03*
%TO.P,J1,4,Pin_4*%
%TO.N,Net-(J1-Pin_4)*%
X123250000Y-97250000D03*
%TO.P,J1,5,Pin_5*%
%TO.N,Net-(J1-Pin_5)*%
X123250000Y-98500000D03*
%TO.P,J1,6,Pin_6*%
%TO.N,Net-(J1-Pin_6)*%
X123250000Y-99750000D03*
%TO.P,J1,7,Pin_7*%
%TO.N,Net-(J1-Pin_7)*%
X123250000Y-101000000D03*
%TO.P,J1,8,Pin_8*%
%TO.N,BAT+*%
X123250000Y-102250000D03*
D15*
%TO.P,J1,MP*%
%TO.N,N/C*%
X119900000Y-91650000D03*
X119900000Y-104100000D03*
%TD*%
D16*
%TO.P,R3,1*%
%TO.N,GND*%
X150650000Y-86250000D03*
%TO.P,R3,2*%
%TO.N,BAT-*%
X156750000Y-86250000D03*
%TD*%
D17*
%TO.P,R12,1*%
%TO.N,/3V3*%
X159750002Y-104850000D03*
%TO.P,R12,2*%
%TO.N,/SCL*%
X159750002Y-101750000D03*
%TD*%
D18*
%TO.P,H2,1,1*%
%TO.N,BAT-*%
X162500002Y-86250000D03*
%TD*%
D17*
%TO.P,R2,1*%
%TO.N,Net-(U1-SENSEP)*%
X157937502Y-93250000D03*
%TO.P,R2,2*%
%TO.N,BAT-*%
X157937502Y-90150000D03*
%TD*%
%TO.P,R1,1*%
%TO.N,Net-(U1-SENSEN)*%
X148937502Y-93250000D03*
%TO.P,R1,2*%
%TO.N,GND*%
X148937502Y-90150000D03*
%TD*%
D19*
%TO.P,TP4,1,1*%
%TO.N,Net-(U1-VC2)*%
X134250000Y-98000000D03*
%TD*%
D20*
%TO.P,R10,1*%
%TO.N,GND*%
X127250002Y-90750000D03*
%TO.P,R10,2*%
%TO.N,Net-(U1-VC0)*%
X130350002Y-90750000D03*
%TD*%
D21*
%TO.P,C1,1*%
%TO.N,Net-(U1-SENSEN)*%
X151875002Y-92500000D03*
%TO.P,C1,2*%
%TO.N,Net-(U1-SENSEP)*%
X155000002Y-92500000D03*
%TD*%
D18*
%TO.P,H1,1,1*%
%TO.N,BAT+*%
X137750002Y-110000000D03*
%TD*%
D20*
%TO.P,R9,1*%
%TO.N,Net-(J1-Pin_3)*%
X127250002Y-93333333D03*
%TO.P,R9,2*%
%TO.N,Net-(U1-VC1)*%
X130350002Y-93333333D03*
%TD*%
D22*
%TO.P,C7,1*%
%TO.N,Net-(U1-VC5)*%
X140500002Y-102000000D03*
%TO.P,C7,2*%
%TO.N,GND*%
X140500002Y-105125000D03*
%TD*%
%TO.P,C6,1*%
%TO.N,Net-(U1-VC4)*%
X137000002Y-102000000D03*
%TO.P,C6,2*%
%TO.N,GND*%
X137000002Y-105125000D03*
%TD*%
%TO.P,C5,1*%
%TO.N,Net-(U1-VC3)*%
X133500002Y-102000000D03*
%TO.P,C5,2*%
%TO.N,GND*%
X133500002Y-105125000D03*
%TD*%
D19*
%TO.P,TP3,1,1*%
%TO.N,Net-(J1-Pin_4)*%
X130500000Y-88000000D03*
%TD*%
D20*
%TO.P,R5,1*%
%TO.N,Net-(J1-Pin_7)*%
X127250002Y-103666665D03*
%TO.P,R5,2*%
%TO.N,Net-(U1-VC5)*%
X130350002Y-103666665D03*
%TD*%
%TO.P,R6,1*%
%TO.N,Net-(J1-Pin_6)*%
X127250002Y-101083332D03*
%TO.P,R6,2*%
%TO.N,Net-(U1-VC4)*%
X130350002Y-101083332D03*
%TD*%
D23*
%TO.P,R11,1*%
%TO.N,Net-(U1-BAT)*%
X147500002Y-105650000D03*
%TO.P,R11,2*%
%TO.N,BAT+*%
X147500002Y-108750000D03*
%TD*%
D21*
%TO.P,C12,1*%
%TO.N,/Temperature*%
X161687500Y-97250000D03*
%TO.P,C12,2*%
%TO.N,GND*%
X164812500Y-97250000D03*
%TD*%
D19*
%TO.P,TP1,1,1*%
%TO.N,GND*%
X156750000Y-109500000D03*
%TD*%
%TO.P,TP2,1,1*%
%TO.N,/3V3*%
X161000002Y-107750000D03*
%TD*%
D24*
%TO.P,C3,1*%
%TO.N,Net-(U1-VC1)*%
X137875002Y-94500000D03*
%TO.P,C3,2*%
%TO.N,GND*%
X137875002Y-91375000D03*
%TD*%
%TO.P,C2,1*%
%TO.N,Net-(U1-VC0)*%
X141500002Y-94500000D03*
%TO.P,C2,2*%
%TO.N,GND*%
X141500002Y-91375000D03*
%TD*%
D22*
%TO.P,C10,1*%
%TO.N,/3V3*%
X156000002Y-102937500D03*
%TO.P,C10,2*%
%TO.N,GND*%
X156000002Y-106062500D03*
%TD*%
D20*
%TO.P,R8,1*%
%TO.N,Net-(J1-Pin_4)*%
X127250002Y-95916666D03*
%TO.P,R8,2*%
%TO.N,Net-(U1-VC2)*%
X130350002Y-95916666D03*
%TD*%
%TO.P,R7,1*%
%TO.N,Net-(J1-Pin_5)*%
X127250002Y-98499999D03*
%TO.P,R7,2*%
%TO.N,Net-(U1-VC3)*%
X130350002Y-98499999D03*
%TD*%
D22*
%TO.P,C9,1*%
%TO.N,Net-(U1-BAT)*%
X150500000Y-105000000D03*
%TO.P,C9,2*%
%TO.N,GND*%
X150500000Y-108125000D03*
%TD*%
D24*
%TO.P,C4,1*%
%TO.N,Net-(U1-VC2)*%
X134250002Y-94500000D03*
%TO.P,C4,2*%
%TO.N,GND*%
X134250002Y-91375000D03*
%TD*%
D17*
%TO.P,R13,1*%
%TO.N,/3V3*%
X162250002Y-104850000D03*
%TO.P,R13,2*%
%TO.N,/SDA*%
X162250002Y-101750000D03*
%TD*%
D22*
%TO.P,C8,1*%
%TO.N,Net-(U1-VC6)*%
X144000002Y-102000000D03*
%TO.P,C8,2*%
%TO.N,GND*%
X144000002Y-105125000D03*
%TD*%
D20*
%TO.P,R4,1*%
%TO.N,BAT+*%
X127250002Y-106250000D03*
%TO.P,R4,2*%
%TO.N,Net-(U1-VC6)*%
X130350002Y-106250000D03*
%TD*%
D25*
%TO.P,U1,1,VCTL*%
%TO.N,Net-(U1-BAT)*%
X146887502Y-101800000D03*
%TO.P,U1,2,BAT*%
X146887502Y-101150000D03*
%TO.P,U1,3,VC6*%
%TO.N,Net-(U1-VC6)*%
X146887502Y-100500000D03*
%TO.P,U1,4,VC5*%
%TO.N,Net-(U1-VC5)*%
X146887502Y-99850000D03*
%TO.P,U1,5,VC4*%
%TO.N,Net-(U1-VC4)*%
X146887502Y-99200000D03*
%TO.P,U1,6,VC3*%
%TO.N,Net-(U1-VC3)*%
X146887502Y-98550000D03*
%TO.P,U1,7,VC2*%
%TO.N,Net-(U1-VC2)*%
X146887502Y-97900000D03*
%TO.P,U1,8,VC1*%
%TO.N,Net-(U1-VC1)*%
X146887502Y-97250000D03*
%TO.P,U1,9,VC0*%
%TO.N,Net-(U1-VC0)*%
X146887502Y-96600000D03*
%TO.P,U1,10,VSS*%
%TO.N,GND*%
X146887502Y-95950000D03*
%TO.P,U1,11,SENSEN*%
%TO.N,Net-(U1-SENSEN)*%
X152612502Y-95950000D03*
%TO.P,U1,12,SENSEP*%
%TO.N,Net-(U1-SENSEP)*%
X152612502Y-96600000D03*
%TO.P,U1,13,ALERT*%
%TO.N,unconnected-(U1-ALERT-Pad13)*%
X152612502Y-97250000D03*
%TO.P,U1,14,VIOUT*%
%TO.N,unconnected-(U1-VIOUT-Pad14)*%
X152612502Y-97900000D03*
%TO.P,U1,15,VCOUT*%
%TO.N,/Cell_voltage*%
X152612502Y-98550000D03*
%TO.P,U1,16,VTB*%
%TO.N,/Temperature*%
X152612502Y-99200000D03*
%TO.P,U1,17,VREF*%
%TO.N,unconnected-(U1-VREF-Pad17)*%
X152612502Y-99850000D03*
%TO.P,U1,18,SDA*%
%TO.N,/SDA*%
X152612502Y-100500000D03*
%TO.P,U1,19,SCL*%
%TO.N,/SCL*%
X152612502Y-101150000D03*
%TO.P,U1,20,V3P3*%
%TO.N,/3V3*%
X152612502Y-101800000D03*
%TD*%
D21*
%TO.P,C11,1*%
%TO.N,/Cell_voltage*%
X161687500Y-93750000D03*
%TO.P,C11,2*%
%TO.N,GND*%
X164812500Y-93750000D03*
%TD*%
D26*
%TO.N,*%
X170000000Y-111625000D02*
X170000000Y-111375000D01*
%TO.N,Net-(U1-SENSEP)*%
X155000002Y-92500000D02*
X155000002Y-95499998D01*
X153900000Y-96600000D02*
X152612502Y-96600000D01*
X155000002Y-95499998D02*
X153900000Y-96600000D01*
%TO.N,*%
X174625000Y-110125000D02*
X174625000Y-111625000D01*
X174625000Y-111625000D02*
X173125000Y-111625000D01*
X173125000Y-111625000D02*
X172875000Y-111375000D01*
X174625000Y-110125000D02*
X174625000Y-108625000D01*
X174750000Y-108500000D02*
X173250000Y-108500000D01*
X174625000Y-108625000D02*
X174750000Y-108500000D01*
X173250000Y-108500000D02*
X173000000Y-108750000D01*
%TO.N,/SCL*%
X165100001Y-103250000D02*
X165950001Y-104100000D01*
X165950001Y-104100000D02*
X168000000Y-104100000D01*
%TO.N,/SDA*%
X165950000Y-101750000D02*
X167050000Y-102850000D01*
X167050000Y-102850000D02*
X168000000Y-102850000D01*
%TO.N,/SCL*%
X159750002Y-101750000D02*
X161250002Y-103250000D01*
X161250002Y-103250000D02*
X165100001Y-103250000D01*
%TO.N,/Temperature*%
X161687500Y-97250000D02*
X163250000Y-95687500D01*
X163250000Y-95687500D02*
X163250000Y-92500000D01*
X163250000Y-92500000D02*
X164250000Y-91500000D01*
X164250000Y-91500000D02*
X168000000Y-91500000D01*
%TO.N,/Cell_voltage*%
X152612502Y-98550000D02*
X157200000Y-98550000D01*
X157200000Y-98550000D02*
X161687500Y-94062500D01*
X161687500Y-94062500D02*
X161687500Y-92750000D01*
X161687500Y-92750000D02*
X164187500Y-90250000D01*
X164187500Y-90250000D02*
X168000000Y-90250000D01*
%TO.N,/Temperature*%
X152612502Y-99200000D02*
X159737500Y-99200000D01*
X159737500Y-99200000D02*
X161687500Y-97250000D01*
%TO.N,/SDA*%
X162250002Y-101750000D02*
X165950000Y-101750000D01*
%TO.N,Net-(J1-Pin_7)*%
X123250000Y-101000000D02*
X124583337Y-101000000D01*
X124583337Y-101000000D02*
X127250002Y-103666665D01*
%TO.N,Net-(J1-Pin_6)*%
X123250000Y-99750000D02*
X125916670Y-99750000D01*
X125916670Y-99750000D02*
X127250002Y-101083332D01*
%TO.N,Net-(J1-Pin_5)*%
X127250002Y-98499999D02*
X123250001Y-98499999D01*
X123250001Y-98499999D02*
X123250000Y-98500000D01*
%TO.N,Net-(J1-Pin_4)*%
X127250002Y-95916666D02*
X125916668Y-97250000D01*
X125916668Y-97250000D02*
X123250000Y-97250000D01*
%TO.N,Net-(J1-Pin_3)*%
X127250002Y-93333333D02*
X124583335Y-96000000D01*
X124583335Y-96000000D02*
X123250000Y-96000000D01*
D27*
%TO.N,BAT-*%
X156750000Y-86250000D02*
X156750000Y-88962498D01*
X156750000Y-88962498D02*
X157937502Y-90150000D01*
X162500002Y-86250000D02*
X156750000Y-86250000D01*
%TO.N,GND*%
X148937502Y-90150000D02*
X150650000Y-88437502D01*
X150650000Y-88437502D02*
X150650000Y-86250000D01*
D26*
%TO.N,*%
X169250000Y-110375000D02*
X169250000Y-109375000D01*
X169250000Y-109375000D02*
X168250000Y-108375000D01*
X169250000Y-111625000D02*
X169250000Y-110375000D01*
X166500000Y-111125000D02*
X166500000Y-108375000D01*
X172000000Y-110125000D02*
X170750000Y-111375000D01*
X170750000Y-111375000D02*
X170750000Y-111625000D01*
X168250000Y-108375000D02*
X167250000Y-109375000D01*
X172250000Y-110125000D02*
X172250000Y-108625000D01*
X172250000Y-111625000D02*
X172250000Y-110125000D01*
X167250000Y-109375000D02*
X167250000Y-111625000D01*
X165500000Y-111125000D02*
X166000000Y-111625000D01*
X164500000Y-108375000D02*
X164500000Y-111125000D01*
X165000000Y-111625000D02*
X165500000Y-111125000D01*
X169250000Y-110375000D02*
X167875000Y-110375000D01*
X166000000Y-111625000D02*
X166500000Y-111125000D01*
X164500000Y-111125000D02*
X165000000Y-111625000D01*
X172250000Y-110375000D02*
X172000000Y-110125000D01*
X172000000Y-110125000D02*
X170875000Y-109000000D01*
X170875000Y-109000000D02*
X170875000Y-108625000D01*
X174625000Y-110125000D02*
X173625000Y-110125000D01*
%TO.N,Net-(J1-Pin_4)*%
X128750000Y-94416668D02*
X128750000Y-89750000D01*
X127250002Y-95916666D02*
X128750000Y-94416668D01*
X128750000Y-89750000D02*
X130500000Y-88000000D01*
D28*
%TO.N,/3V3*%
X159750002Y-106500000D02*
X161000002Y-107750000D01*
X156187502Y-102937500D02*
X158100002Y-104850000D01*
X159750002Y-104850000D02*
X159750002Y-106500000D01*
X156000002Y-102937500D02*
X156187502Y-102937500D01*
X158100002Y-104850000D02*
X159750002Y-104850000D01*
X156000002Y-102937500D02*
X153750002Y-102937500D01*
X159750002Y-104850000D02*
X162250002Y-104850000D01*
X153750002Y-102937500D02*
X152612502Y-101800000D01*
D26*
%TO.N,Net-(U1-SENSEN)*%
X152612502Y-95950000D02*
X151875002Y-95212500D01*
X151875002Y-95212500D02*
X151875002Y-92500000D01*
X151125002Y-93250000D02*
X151875002Y-92500000D01*
X148937502Y-93250000D02*
X151125002Y-93250000D01*
%TO.N,Net-(U1-SENSEP)*%
X155750002Y-93250000D02*
X157937502Y-93250000D01*
X155000002Y-92500000D02*
X155750002Y-93250000D01*
%TO.N,Net-(U1-VC0)*%
X139500002Y-92500000D02*
X141500002Y-94500000D01*
X131000002Y-90750000D02*
X132750002Y-92500000D01*
X141500002Y-94500000D02*
X143600002Y-96600000D01*
X132750002Y-92500000D02*
X139500002Y-92500000D01*
X130350002Y-90750000D02*
X131000002Y-90750000D01*
X143600002Y-96600000D02*
X146887502Y-96600000D01*
%TO.N,Net-(U1-VC1)*%
X136708335Y-93333333D02*
X137875002Y-94500000D01*
X137875002Y-94500000D02*
X140625002Y-97250000D01*
X130350002Y-93333333D02*
X136708335Y-93333333D01*
X140625002Y-97250000D02*
X146887502Y-97250000D01*
%TO.N,Net-(U1-VC2)*%
X132833336Y-96583336D02*
X134250000Y-98000000D01*
X134250002Y-94500000D02*
X134250002Y-95250002D01*
X132833336Y-95916666D02*
X132833336Y-96583336D01*
X132833336Y-95916666D02*
X134250002Y-94500000D01*
X130350002Y-95916666D02*
X132833336Y-95916666D01*
X134250002Y-95250002D02*
X136900000Y-97900000D01*
X136900000Y-97900000D02*
X146887502Y-97900000D01*
%TO.N,Net-(U1-VC3)*%
X136876121Y-98623881D02*
X133500002Y-102000000D01*
X136950002Y-98550000D02*
X136876121Y-98623881D01*
X146887502Y-98550000D02*
X136950002Y-98550000D01*
X133675002Y-101825000D02*
X133750002Y-101899999D01*
X130350002Y-98850000D02*
X133500002Y-102000000D01*
X130350002Y-98499999D02*
X130350002Y-98850000D01*
D29*
%TO.N,Net-(U1-VC4)*%
X130350002Y-101147244D02*
X132452758Y-103250000D01*
D26*
X130350002Y-101083332D02*
X130350002Y-101147244D01*
X137000002Y-102000000D02*
X139800002Y-99200000D01*
D29*
X135750002Y-103250000D02*
X137000002Y-102000000D01*
X132452758Y-103250000D02*
X135750002Y-103250000D01*
D26*
X130350002Y-101083332D02*
X130350002Y-101647244D01*
X139800002Y-99200000D02*
X146887502Y-99200000D01*
D29*
%TO.N,Net-(U1-VC5)*%
X130350002Y-103666665D02*
X138833337Y-103666665D01*
X138833337Y-103666665D02*
X140500002Y-102000000D01*
D26*
X140500002Y-102000000D02*
X142650002Y-99850000D01*
X142650002Y-99850000D02*
X146887502Y-99850000D01*
D29*
%TO.N,Net-(U1-VC6)*%
X132165258Y-104162500D02*
X141837502Y-104162500D01*
X141837502Y-104162500D02*
X144000002Y-102000000D01*
D26*
X130350002Y-106250000D02*
X130350002Y-105977756D01*
X145500002Y-100500000D02*
X146887502Y-100500000D01*
D29*
X130350002Y-105977756D02*
X132165258Y-104162500D01*
D26*
X144000002Y-102000000D02*
X145500002Y-100500000D01*
D28*
%TO.N,Net-(U1-BAT)*%
X147500002Y-102412500D02*
X146887502Y-101800000D01*
X146887502Y-101150000D02*
X146887502Y-101800000D01*
X147500002Y-105650000D02*
X147500002Y-103937500D01*
X147500002Y-103000002D02*
X147500002Y-102412500D01*
X147500002Y-103937500D02*
X147500002Y-102412500D01*
X149500000Y-105000000D02*
X147500002Y-103000002D01*
X150500000Y-105000000D02*
X149500000Y-105000000D01*
D26*
%TO.N,/SCL*%
X152612502Y-101150000D02*
X159150002Y-101150000D01*
X159150002Y-101150000D02*
X159750002Y-101750000D01*
%TO.N,/SDA*%
X161000002Y-100500000D02*
X162250002Y-101750000D01*
X152612502Y-100500000D02*
X161000002Y-100500000D01*
%TD*%
%TA.AperFunction,Conductor*%
%TO.N,GND*%
G36*
X161000002Y-83749500D02*
G01*
X156609568Y-83749500D01*
X156330505Y-83780942D01*
X156330487Y-83780945D01*
X156056682Y-83843439D01*
X156056670Y-83843443D01*
X155791588Y-83936200D01*
X155538557Y-84058053D01*
X155300753Y-84207476D01*
X155081175Y-84382583D01*
X154882583Y-84581175D01*
X154707476Y-84800753D01*
X154558053Y-85038557D01*
X154436200Y-85291588D01*
X154343443Y-85556670D01*
X154343439Y-85556682D01*
X154280945Y-85830487D01*
X154280942Y-85830505D01*
X154249500Y-86109568D01*
X154249500Y-88750000D01*
X131750002Y-88750000D01*
X131750002Y-90509343D01*
X131536820Y-90296161D01*
X131503335Y-90234838D01*
X131500501Y-90208480D01*
X131500501Y-90074998D01*
X131500500Y-90074981D01*
X131490001Y-89972203D01*
X131490000Y-89972200D01*
X131472102Y-89918189D01*
X131434816Y-89805666D01*
X131342714Y-89656344D01*
X131218658Y-89532288D01*
X131096079Y-89456681D01*
X131069338Y-89440187D01*
X131069333Y-89440185D01*
X130957059Y-89402981D01*
X130899614Y-89363208D01*
X130872791Y-89298692D01*
X130885106Y-89229916D01*
X130932649Y-89178717D01*
X130943654Y-89172895D01*
X131127639Y-89087102D01*
X131306877Y-88961598D01*
X131461598Y-88806877D01*
X131587102Y-88627639D01*
X131679575Y-88429330D01*
X131736207Y-88217977D01*
X131755277Y-88000000D01*
X131754763Y-87994130D01*
X131748175Y-87918825D01*
X131736207Y-87782023D01*
X131720924Y-87724986D01*
X149450001Y-87724986D01*
X149460494Y-87827696D01*
X149460494Y-87827698D01*
X149515640Y-87994119D01*
X149515645Y-87994130D01*
X149607680Y-88143340D01*
X149607683Y-88143344D01*
X149731655Y-88267316D01*
X149731659Y-88267319D01*
X149880869Y-88359354D01*
X149880880Y-88359359D01*
X150047302Y-88414505D01*
X150150019Y-88424999D01*
X150399999Y-88424999D01*
X150900000Y-88424999D01*
X151149972Y-88424999D01*
X151149986Y-88424998D01*
X151252696Y-88414505D01*
X151252698Y-88414505D01*
X151419119Y-88359359D01*
X151419130Y-88359354D01*
X151568340Y-88267319D01*
X151568344Y-88267316D01*
X151692316Y-88143344D01*
X151692319Y-88143340D01*
X151784354Y-87994130D01*
X151784359Y-87994119D01*
X151839505Y-87827697D01*
X151849999Y-87724986D01*
X151850000Y-87724973D01*
X151850000Y-86500000D01*
X150900000Y-86500000D01*
X150900000Y-88424999D01*
X150399999Y-88424999D01*
X150400000Y-88424998D01*
X150400000Y-86500000D01*
X149450001Y-86500000D01*
X149450001Y-87724986D01*
X131720924Y-87724986D01*
X131679575Y-87570670D01*
X131587102Y-87372362D01*
X131587100Y-87372359D01*
X131587099Y-87372357D01*
X131461599Y-87193124D01*
X131461596Y-87193121D01*
X131306877Y-87038402D01*
X131127639Y-86912898D01*
X131127640Y-86912898D01*
X131127638Y-86912897D01*
X131028484Y-86866661D01*
X130929330Y-86820425D01*
X130929326Y-86820424D01*
X130929322Y-86820422D01*
X130717977Y-86763793D01*
X130500002Y-86744723D01*
X130499998Y-86744723D01*
X130354682Y-86757436D01*
X130282023Y-86763793D01*
X130282020Y-86763793D01*
X130070677Y-86820422D01*
X130070668Y-86820426D01*
X129872361Y-86912898D01*
X129872357Y-86912900D01*
X129693121Y-87038402D01*
X129538402Y-87193121D01*
X129412900Y-87372357D01*
X129412898Y-87372361D01*
X129320426Y-87570668D01*
X129320422Y-87570677D01*
X129263793Y-87782020D01*
X129263793Y-87782024D01*
X129244723Y-87999997D01*
X129244723Y-88000002D01*
X129260971Y-88185729D01*
X129247204Y-88254229D01*
X129225124Y-88284217D01*
X128205888Y-89303453D01*
X128205885Y-89303457D01*
X128138304Y-89404600D01*
X128084692Y-89449405D01*
X128015367Y-89458112D01*
X127975821Y-89443376D01*
X127975672Y-89443696D01*
X127971666Y-89441828D01*
X127970101Y-89441245D01*
X127969127Y-89440644D01*
X127969121Y-89440641D01*
X127802699Y-89385494D01*
X127802692Y-89385493D01*
X127699988Y-89375000D01*
X127500002Y-89375000D01*
X127500002Y-90626000D01*
X127480317Y-90693039D01*
X127427513Y-90738794D01*
X127376002Y-90750000D01*
X127250002Y-90750000D01*
X127250002Y-90876000D01*
X127230317Y-90943039D01*
X127177513Y-90988794D01*
X127126002Y-91000000D01*
X126100003Y-91000000D01*
X126100003Y-91424986D01*
X126110496Y-91527697D01*
X126165643Y-91694119D01*
X126165645Y-91694124D01*
X126257686Y-91843345D01*
X126367973Y-91953632D01*
X126401458Y-92014955D01*
X126396474Y-92084647D01*
X126367973Y-92128994D01*
X126257291Y-92239675D01*
X126165189Y-92388996D01*
X126165188Y-92388999D01*
X126110003Y-92555536D01*
X126110003Y-92555537D01*
X126110002Y-92555537D01*
X126099502Y-92658316D01*
X126099502Y-93441813D01*
X126079817Y-93508852D01*
X126063183Y-93529494D01*
X124628996Y-94963681D01*
X124567673Y-94997166D01*
X124541315Y-95000000D01*
X121902705Y-95000000D01*
X121902704Y-95000001D01*
X121902899Y-95002486D01*
X121948718Y-95160198D01*
X122036288Y-95308271D01*
X122034285Y-95309455D01*
X122055551Y-95363645D01*
X122041860Y-95432160D01*
X122030030Y-95450568D01*
X122028936Y-95451979D01*
X121972302Y-95492898D01*
X121930941Y-95500000D01*
X116374500Y-95500000D01*
X116307461Y-95480315D01*
X116261706Y-95427511D01*
X116250500Y-95376000D01*
X116250500Y-93750001D01*
X121902704Y-93750001D01*
X121902899Y-93752486D01*
X121948718Y-93910198D01*
X122036288Y-94058271D01*
X122034412Y-94059380D01*
X122055870Y-94114050D01*
X122042182Y-94182566D01*
X122036228Y-94191829D01*
X121948718Y-94339801D01*
X121902899Y-94497513D01*
X121902704Y-94499998D01*
X121902705Y-94500000D01*
X123000000Y-94500000D01*
X123500000Y-94500000D01*
X124597295Y-94500000D01*
X124597295Y-94499998D01*
X124597100Y-94497513D01*
X124551281Y-94339801D01*
X124463712Y-94191729D01*
X124465590Y-94190617D01*
X124444131Y-94135972D01*
X124457807Y-94067453D01*
X124463758Y-94058192D01*
X124551281Y-93910198D01*
X124597100Y-93752486D01*
X124597295Y-93750001D01*
X124597295Y-93750000D01*
X123500000Y-93750000D01*
X123500000Y-94500000D01*
X123000000Y-94500000D01*
X123000000Y-93750000D01*
X121902705Y-93750000D01*
X121902704Y-93750001D01*
X116250500Y-93750001D01*
X116250500Y-93249998D01*
X121902704Y-93249998D01*
X121902705Y-93250000D01*
X123000000Y-93250000D01*
X123500000Y-93250000D01*
X124597295Y-93250000D01*
X124597295Y-93249998D01*
X124597100Y-93247513D01*
X124551281Y-93089801D01*
X124467685Y-92948447D01*
X124467678Y-92948438D01*
X124351561Y-92832321D01*
X124351552Y-92832314D01*
X124210196Y-92748717D01*
X124210193Y-92748716D01*
X124052495Y-92702900D01*
X124052489Y-92702899D01*
X124015649Y-92700000D01*
X123500000Y-92700000D01*
X123500000Y-93250000D01*
X123000000Y-93250000D01*
X123000000Y-92700000D01*
X122484350Y-92700000D01*
X122447510Y-92702899D01*
X122447504Y-92702900D01*
X122289806Y-92748716D01*
X122289803Y-92748717D01*
X122148447Y-92832314D01*
X122148438Y-92832321D01*
X122032321Y-92948438D01*
X122032314Y-92948447D01*
X121948718Y-93089801D01*
X121902899Y-93247513D01*
X121902704Y-93249998D01*
X116250500Y-93249998D01*
X116250500Y-91349983D01*
X117999500Y-91349983D01*
X117999500Y-91950001D01*
X117999501Y-91950019D01*
X118010000Y-92052796D01*
X118010001Y-92052799D01*
X118065185Y-92219331D01*
X118065187Y-92219336D01*
X118088596Y-92257288D01*
X118157288Y-92368656D01*
X118281344Y-92492712D01*
X118430666Y-92584814D01*
X118597203Y-92639999D01*
X118699991Y-92650500D01*
X121100008Y-92650499D01*
X121202797Y-92639999D01*
X121369334Y-92584814D01*
X121518656Y-92492712D01*
X121642712Y-92368656D01*
X121734814Y-92219334D01*
X121789999Y-92052797D01*
X121800500Y-91950009D01*
X121800499Y-91349992D01*
X121789999Y-91247203D01*
X121734814Y-91080666D01*
X121642712Y-90931344D01*
X121518656Y-90807288D01*
X121369334Y-90715186D01*
X121202797Y-90660001D01*
X121202795Y-90660000D01*
X121100010Y-90649500D01*
X118699998Y-90649500D01*
X118699981Y-90649501D01*
X118597203Y-90660000D01*
X118597200Y-90660001D01*
X118430668Y-90715185D01*
X118430663Y-90715187D01*
X118281342Y-90807289D01*
X118157289Y-90931342D01*
X118065187Y-91080663D01*
X118065185Y-91080668D01*
X118037349Y-91164670D01*
X118010001Y-91247203D01*
X118010001Y-91247204D01*
X118010000Y-91247204D01*
X117999500Y-91349983D01*
X116250500Y-91349983D01*
X116250500Y-90075013D01*
X126100002Y-90075013D01*
X126100002Y-90500000D01*
X127000002Y-90500000D01*
X127000002Y-89375000D01*
X126800031Y-89375000D01*
X126800014Y-89375001D01*
X126697304Y-89385494D01*
X126530882Y-89440641D01*
X126530877Y-89440643D01*
X126381656Y-89532684D01*
X126257686Y-89656654D01*
X126165645Y-89805875D01*
X126165643Y-89805880D01*
X126110496Y-89972302D01*
X126110495Y-89972309D01*
X126100002Y-90075013D01*
X116250500Y-90075013D01*
X116250500Y-84775013D01*
X149450000Y-84775013D01*
X149450000Y-86000000D01*
X150400000Y-86000000D01*
X150900000Y-86000000D01*
X151849999Y-86000000D01*
X151849999Y-84775028D01*
X151849998Y-84775013D01*
X151839505Y-84672303D01*
X151839505Y-84672301D01*
X151784359Y-84505880D01*
X151784354Y-84505869D01*
X151692319Y-84356659D01*
X151692316Y-84356655D01*
X151568344Y-84232683D01*
X151568340Y-84232680D01*
X151419130Y-84140645D01*
X151419119Y-84140640D01*
X151252697Y-84085494D01*
X151149986Y-84075000D01*
X150900000Y-84075000D01*
X150900000Y-86000000D01*
X150400000Y-86000000D01*
X150400000Y-84075000D01*
X150150029Y-84075000D01*
X150150012Y-84075001D01*
X150047303Y-84085494D01*
X150047301Y-84085494D01*
X149880880Y-84140640D01*
X149880869Y-84140645D01*
X149731659Y-84232680D01*
X149731655Y-84232683D01*
X149607683Y-84356655D01*
X149607680Y-84356659D01*
X149515645Y-84505869D01*
X149515640Y-84505880D01*
X149460494Y-84672302D01*
X149450000Y-84775013D01*
X116250500Y-84775013D01*
X116250500Y-83124500D01*
X116270185Y-83057461D01*
X116322989Y-83011706D01*
X116374500Y-83000500D01*
X161000002Y-83000500D01*
X161000002Y-83749500D01*
G37*
%TD.AperFunction*%
%TD*%
%TA.AperFunction,Conductor*%
%TO.N,GND*%
G36*
X175192539Y-83020185D02*
G01*
X175238294Y-83072989D01*
X175249500Y-83124500D01*
X175249500Y-88301395D01*
X175229815Y-88368434D01*
X175177011Y-88414189D01*
X175125500Y-88425395D01*
X173374500Y-88425395D01*
X173307461Y-88405710D01*
X173261706Y-88352906D01*
X173250500Y-88301396D01*
X173250499Y-88099999D01*
X173250498Y-88099980D01*
X173239999Y-87997203D01*
X173239998Y-87997200D01*
X173214027Y-87918825D01*
X173184814Y-87830666D01*
X173092712Y-87681344D01*
X172968656Y-87557288D01*
X172819334Y-87465186D01*
X172652797Y-87410001D01*
X172652795Y-87410000D01*
X172550010Y-87399500D01*
X170149998Y-87399500D01*
X170149981Y-87399501D01*
X170047203Y-87410000D01*
X170047200Y-87410001D01*
X169880668Y-87465185D01*
X169880663Y-87465187D01*
X169731342Y-87557289D01*
X169607289Y-87681342D01*
X169515187Y-87830663D01*
X169515186Y-87830666D01*
X169460001Y-87997203D01*
X169460001Y-87997204D01*
X169460000Y-87997204D01*
X169449500Y-88099983D01*
X169449500Y-88700001D01*
X169449501Y-88700019D01*
X169460000Y-88802796D01*
X169460001Y-88802799D01*
X169515185Y-88969331D01*
X169515187Y-88969336D01*
X169550069Y-89025888D01*
X169607288Y-89118656D01*
X169731344Y-89242712D01*
X169880666Y-89334814D01*
X170047203Y-89389999D01*
X170149991Y-89400500D01*
X172550008Y-89400499D01*
X172652797Y-89389999D01*
X172758492Y-89354974D01*
X172828316Y-89352573D01*
X172888358Y-89388304D01*
X172919551Y-89450824D01*
X172921493Y-89472681D01*
X172921493Y-92277318D01*
X172901808Y-92344357D01*
X172849004Y-92390112D01*
X172779846Y-92400056D01*
X172758489Y-92395024D01*
X172652797Y-92360001D01*
X172652795Y-92360000D01*
X172550010Y-92349500D01*
X170149998Y-92349500D01*
X170149981Y-92349501D01*
X170047203Y-92360000D01*
X170047200Y-92360001D01*
X169880668Y-92415185D01*
X169880663Y-92415187D01*
X169731342Y-92507289D01*
X169607289Y-92631342D01*
X169515187Y-92780663D01*
X169515186Y-92780666D01*
X169460001Y-92947203D01*
X169460001Y-92947204D01*
X169460000Y-92947204D01*
X169449500Y-93049983D01*
X169449500Y-93650001D01*
X169449501Y-93650019D01*
X169460000Y-93752796D01*
X169460001Y-93752799D01*
X169515185Y-93919331D01*
X169515187Y-93919336D01*
X169534409Y-93950500D01*
X169607288Y-94068656D01*
X169731344Y-94192712D01*
X169880666Y-94284814D01*
X170047203Y-94339999D01*
X170149991Y-94350500D01*
X172550008Y-94350499D01*
X172652797Y-94339999D01*
X172819334Y-94284814D01*
X172968656Y-94192712D01*
X173092712Y-94068656D01*
X173184814Y-93919334D01*
X173239999Y-93752797D01*
X173249850Y-93656369D01*
X173276246Y-93591678D01*
X173333427Y-93551527D01*
X173373208Y-93544972D01*
X175125500Y-93544972D01*
X175192539Y-93564657D01*
X175238294Y-93617461D01*
X175249500Y-93668972D01*
X175249500Y-101267115D01*
X175229815Y-101334154D01*
X175177011Y-101379909D01*
X175125500Y-101391115D01*
X173374500Y-101391115D01*
X173307461Y-101371430D01*
X173261706Y-101318626D01*
X173250500Y-101267115D01*
X173250499Y-100699998D01*
X173250498Y-100699980D01*
X173239999Y-100597203D01*
X173239998Y-100597200D01*
X173224523Y-100550500D01*
X173184814Y-100430666D01*
X173092712Y-100281344D01*
X172968656Y-100157288D01*
X172819334Y-100065186D01*
X172652797Y-100010001D01*
X172652795Y-100010000D01*
X172550010Y-99999500D01*
X170149998Y-99999500D01*
X170149981Y-99999501D01*
X170047203Y-100010000D01*
X170047200Y-100010001D01*
X169880668Y-100065185D01*
X169880663Y-100065187D01*
X169731342Y-100157289D01*
X169607289Y-100281342D01*
X169515187Y-100430663D01*
X169515186Y-100430666D01*
X169460001Y-100597203D01*
X169460001Y-100597204D01*
X169460000Y-100597204D01*
X169449500Y-100699983D01*
X169449500Y-101300001D01*
X169449501Y-101300019D01*
X169460000Y-101402796D01*
X169460001Y-101402799D01*
X169497174Y-101514977D01*
X169515186Y-101569334D01*
X169607288Y-101718656D01*
X169731344Y-101842712D01*
X169880666Y-101934814D01*
X170047203Y-101989999D01*
X170149991Y-102000500D01*
X172550008Y-102000499D01*
X172652797Y-101989999D01*
X172758492Y-101954974D01*
X172828316Y-101952573D01*
X172888358Y-101988304D01*
X172919551Y-102050824D01*
X172921493Y-102072681D01*
X172921493Y-104877318D01*
X172901808Y-104944357D01*
X172849004Y-104990112D01*
X172779846Y-105000056D01*
X172758489Y-104995024D01*
X172652797Y-104960001D01*
X172652795Y-104960000D01*
X172550010Y-104949500D01*
X170149998Y-104949500D01*
X170149981Y-104949501D01*
X170047203Y-104960000D01*
X170047200Y-104960001D01*
X169880668Y-105015185D01*
X169880663Y-105015187D01*
X169731342Y-105107289D01*
X169607289Y-105231342D01*
X169515187Y-105380663D01*
X169515186Y-105380666D01*
X169460001Y-105547203D01*
X169460001Y-105547204D01*
X169460000Y-105547204D01*
X169449500Y-105649983D01*
X169449500Y-106250001D01*
X169449501Y-106250019D01*
X169460000Y-106352796D01*
X169460001Y-106352799D01*
X169498651Y-106469435D01*
X169515186Y-106519334D01*
X169607288Y-106668656D01*
X169731344Y-106792712D01*
X169880666Y-106884814D01*
X170047203Y-106939999D01*
X170149991Y-106950500D01*
X172550008Y-106950499D01*
X172652797Y-106939999D01*
X172819334Y-106884814D01*
X172968656Y-106792712D01*
X173092712Y-106668656D01*
X173184814Y-106519334D01*
X173239999Y-106352797D01*
X173250500Y-106250009D01*
X173250499Y-105776114D01*
X173270183Y-105709076D01*
X173322987Y-105663321D01*
X173374499Y-105652115D01*
X175125500Y-105652115D01*
X175192539Y-105671800D01*
X175238294Y-105724604D01*
X175249500Y-105776115D01*
X175249500Y-107763104D01*
X175229815Y-107830143D01*
X175177011Y-107875898D01*
X175107853Y-107885842D01*
X175078048Y-107877665D01*
X174954333Y-107826421D01*
X174954323Y-107826418D01*
X174818996Y-107799500D01*
X174818994Y-107799500D01*
X174818993Y-107799500D01*
X173181007Y-107799500D01*
X173181003Y-107799500D01*
X173072590Y-107821065D01*
X173072589Y-107821065D01*
X173059506Y-107823668D01*
X173045673Y-107826419D01*
X173034896Y-107830883D01*
X172992866Y-107848292D01*
X172992864Y-107848293D01*
X172992863Y-107848292D01*
X172918191Y-107879223D01*
X172844509Y-107928457D01*
X172844508Y-107928458D01*
X172803457Y-107955886D01*
X172803454Y-107955888D01*
X172757657Y-108001685D01*
X172696334Y-108035169D01*
X172626642Y-108030183D01*
X172601088Y-108017104D01*
X172581822Y-108004231D01*
X172581804Y-108004221D01*
X172454332Y-107951421D01*
X172454322Y-107951418D01*
X172318995Y-107924500D01*
X172318993Y-107924500D01*
X172181007Y-107924500D01*
X172181005Y-107924500D01*
X172045677Y-107951418D01*
X172045667Y-107951421D01*
X171918195Y-108004221D01*
X171918182Y-108004228D01*
X171803458Y-108080885D01*
X171803454Y-108080888D01*
X171705888Y-108178454D01*
X171705885Y-108178458D01*
X171665602Y-108238746D01*
X171611989Y-108283551D01*
X171542664Y-108292258D01*
X171479637Y-108262103D01*
X171459398Y-108238746D01*
X171419114Y-108178458D01*
X171419111Y-108178454D01*
X171321545Y-108080888D01*
X171321541Y-108080885D01*
X171206817Y-108004228D01*
X171206804Y-108004221D01*
X171079332Y-107951421D01*
X171079322Y-107951418D01*
X170943995Y-107924500D01*
X170943993Y-107924500D01*
X170806007Y-107924500D01*
X170806005Y-107924500D01*
X170670677Y-107951418D01*
X170670667Y-107951421D01*
X170543195Y-108004221D01*
X170543182Y-108004228D01*
X170428458Y-108080885D01*
X170428454Y-108080888D01*
X170330888Y-108178454D01*
X170330885Y-108178458D01*
X170254228Y-108293182D01*
X170254221Y-108293195D01*
X170201421Y-108420667D01*
X170201418Y-108420677D01*
X170174500Y-108556004D01*
X170174500Y-108556007D01*
X170174500Y-108931006D01*
X170174500Y-109068994D01*
X170174500Y-109068996D01*
X170174499Y-109068996D01*
X170201418Y-109204322D01*
X170201421Y-109204332D01*
X170254222Y-109331807D01*
X170330887Y-109446545D01*
X170330888Y-109446546D01*
X170921661Y-110037318D01*
X170955146Y-110098641D01*
X170950162Y-110168332D01*
X170921661Y-110212680D01*
X170424555Y-110709786D01*
X170363232Y-110743271D01*
X170293540Y-110738287D01*
X170289422Y-110736666D01*
X170204332Y-110701421D01*
X170204322Y-110701418D01*
X170068995Y-110674499D01*
X170062933Y-110673903D01*
X170063200Y-110671182D01*
X170007461Y-110654815D01*
X169961706Y-110602011D01*
X169950500Y-110550500D01*
X169950500Y-109306007D01*
X169950499Y-109306001D01*
X169949889Y-109302935D01*
X169949889Y-109302934D01*
X169949887Y-109302928D01*
X169923580Y-109170672D01*
X169923578Y-109170667D01*
X169870777Y-109043192D01*
X169794112Y-108928454D01*
X168696548Y-107830890D01*
X168696539Y-107830883D01*
X168686112Y-107823915D01*
X168686112Y-107823916D01*
X168581818Y-107754228D01*
X168581805Y-107754221D01*
X168454333Y-107701421D01*
X168454323Y-107701418D01*
X168318996Y-107674500D01*
X168318994Y-107674500D01*
X168181006Y-107674500D01*
X168181004Y-107674500D01*
X168045677Y-107701418D01*
X168045667Y-107701421D01*
X167918192Y-107754222D01*
X167803454Y-107830887D01*
X167803453Y-107830888D01*
X167385749Y-108248593D01*
X167324426Y-108282078D01*
X167254734Y-108277094D01*
X167198801Y-108235222D01*
X167176451Y-108185103D01*
X167173581Y-108170679D01*
X167173581Y-108170677D01*
X167173580Y-108170672D01*
X167173578Y-108170667D01*
X167120778Y-108043195D01*
X167120771Y-108043182D01*
X167044114Y-107928457D01*
X166946545Y-107830888D01*
X166946541Y-107830885D01*
X166831817Y-107754228D01*
X166831804Y-107754221D01*
X166704332Y-107701421D01*
X166704322Y-107701418D01*
X166568995Y-107674500D01*
X166568993Y-107674500D01*
X166431007Y-107674500D01*
X166431005Y-107674500D01*
X166295677Y-107701418D01*
X166295667Y-107701421D01*
X166168195Y-107754221D01*
X166168182Y-107754228D01*
X166053458Y-107830885D01*
X166053454Y-107830888D01*
X165955888Y-107928454D01*
X165955886Y-107928457D01*
X165879228Y-108043182D01*
X165879221Y-108043195D01*
X165826421Y-108170667D01*
X165826418Y-108170677D01*
X165799500Y-108306004D01*
X165799500Y-110319256D01*
X165779815Y-110386295D01*
X165727011Y-110432050D01*
X165657853Y-110441994D01*
X165651309Y-110440873D01*
X165568997Y-110424500D01*
X165568994Y-110424500D01*
X165431006Y-110424500D01*
X165431003Y-110424500D01*
X165348691Y-110440873D01*
X165279100Y-110434646D01*
X165223923Y-110391783D01*
X165200678Y-110325893D01*
X165200500Y-110319256D01*
X165200500Y-108306004D01*
X165173581Y-108170677D01*
X165173580Y-108170676D01*
X165173580Y-108170672D01*
X165173578Y-108170667D01*
X165120778Y-108043195D01*
X165120771Y-108043182D01*
X165044114Y-107928457D01*
X164946545Y-107830888D01*
X164946541Y-107830885D01*
X164831817Y-107754228D01*
X164831804Y-107754221D01*
X164704332Y-107701421D01*
X164704322Y-107701418D01*
X164568995Y-107674500D01*
X164568993Y-107674500D01*
X164431007Y-107674500D01*
X164431005Y-107674500D01*
X164295677Y-107701418D01*
X164295667Y-107701421D01*
X164168195Y-107754221D01*
X164168182Y-107754228D01*
X164053458Y-107830885D01*
X164053454Y-107830888D01*
X163955888Y-107928454D01*
X163955886Y-107928457D01*
X163879228Y-108043182D01*
X163879221Y-108043195D01*
X163826421Y-108170667D01*
X163826418Y-108170677D01*
X163799500Y-108306004D01*
X163799500Y-108306007D01*
X163799500Y-111056006D01*
X163799500Y-111193994D01*
X163799500Y-111193996D01*
X163799499Y-111193996D01*
X163826418Y-111329322D01*
X163826421Y-111329332D01*
X163879222Y-111456807D01*
X163955887Y-111571545D01*
X163955888Y-111571546D01*
X164172162Y-111787819D01*
X164205647Y-111849142D01*
X164200663Y-111918833D01*
X164158792Y-111974767D01*
X164093327Y-111999184D01*
X164084481Y-111999500D01*
X149379502Y-111999500D01*
X149312463Y-111979815D01*
X149266708Y-111927011D01*
X149255502Y-111875500D01*
X149255502Y-110543124D01*
X156060427Y-110543124D01*
X156122612Y-110586666D01*
X156320840Y-110679101D01*
X156320849Y-110679105D01*
X156532105Y-110735710D01*
X156532115Y-110735712D01*
X156749999Y-110754775D01*
X156750001Y-110754775D01*
X156967884Y-110735712D01*
X156967894Y-110735710D01*
X157179150Y-110679105D01*
X157179164Y-110679100D01*
X157377383Y-110586669D01*
X157377385Y-110586668D01*
X157439571Y-110543124D01*
X156750001Y-109853553D01*
X156750000Y-109853553D01*
X156060427Y-110543124D01*
X149255502Y-110543124D01*
X149255502Y-109867866D01*
X149255502Y-109867865D01*
X149244924Y-109764995D01*
X149244923Y-109764990D01*
X149244923Y-109764987D01*
X149234655Y-109715588D01*
X149234654Y-109715584D01*
X149234653Y-109715580D01*
X149203358Y-109617004D01*
X149131188Y-109499999D01*
X155495225Y-109499999D01*
X155495225Y-109500000D01*
X155514287Y-109717884D01*
X155514289Y-109717894D01*
X155570894Y-109929150D01*
X155570898Y-109929159D01*
X155663333Y-110127387D01*
X155706874Y-110189571D01*
X156396446Y-109500000D01*
X156396446Y-109499999D01*
X156350369Y-109453922D01*
X156400000Y-109453922D01*
X156400000Y-109546078D01*
X156423852Y-109635095D01*
X156469930Y-109714905D01*
X156535095Y-109780070D01*
X156614905Y-109826148D01*
X156703922Y-109850000D01*
X156796078Y-109850000D01*
X156885095Y-109826148D01*
X156964905Y-109780070D01*
X157030070Y-109714905D01*
X157076148Y-109635095D01*
X157100000Y-109546078D01*
X157100000Y-109499999D01*
X157103553Y-109499999D01*
X157103553Y-109500000D01*
X157793124Y-110189570D01*
X157836668Y-110127385D01*
X157836669Y-110127383D01*
X157929100Y-109929164D01*
X157929105Y-109929150D01*
X157985710Y-109717894D01*
X157985712Y-109717884D01*
X158004775Y-109500000D01*
X158004775Y-109499999D01*
X157985712Y-109282115D01*
X157985710Y-109282105D01*
X157929105Y-109070849D01*
X157929101Y-109070840D01*
X157836668Y-108872615D01*
X157793123Y-108810428D01*
X157103553Y-109499999D01*
X157100000Y-109499999D01*
X157100000Y-109453922D01*
X157076148Y-109364905D01*
X157030070Y-109285095D01*
X156964905Y-109219930D01*
X156885095Y-109173852D01*
X156796078Y-109150000D01*
X156703922Y-109150000D01*
X156614905Y-109173852D01*
X156535095Y-109219930D01*
X156469930Y-109285095D01*
X156423852Y-109364905D01*
X156400000Y-109453922D01*
X156350369Y-109453922D01*
X155706875Y-108810427D01*
X155706875Y-108810428D01*
X155663333Y-108872612D01*
X155663332Y-108872614D01*
X155570898Y-109070840D01*
X155570894Y-109070849D01*
X155514289Y-109282105D01*
X155514287Y-109282115D01*
X155495225Y-109499999D01*
X149131188Y-109499999D01*
X149127824Y-109494545D01*
X149109941Y-109473118D01*
X149082099Y-109409038D01*
X149093320Y-109340075D01*
X149140045Y-109288127D01*
X149207437Y-109269686D01*
X149244148Y-109275960D01*
X149247300Y-109277004D01*
X149247309Y-109277006D01*
X149350019Y-109287499D01*
X150249999Y-109287499D01*
X150750000Y-109287499D01*
X151649972Y-109287499D01*
X151649986Y-109287498D01*
X151752697Y-109277005D01*
X151919119Y-109221858D01*
X151919124Y-109221856D01*
X152068345Y-109129815D01*
X152192315Y-109005845D01*
X152284356Y-108856624D01*
X152284358Y-108856619D01*
X152339505Y-108690197D01*
X152339506Y-108690190D01*
X152349999Y-108587486D01*
X152350000Y-108587473D01*
X152350000Y-108456875D01*
X156060427Y-108456875D01*
X156750000Y-109146446D01*
X156750001Y-109146446D01*
X157439571Y-108456874D01*
X157377387Y-108413333D01*
X157179159Y-108320898D01*
X157179150Y-108320894D01*
X156967894Y-108264289D01*
X156967884Y-108264287D01*
X156750001Y-108245225D01*
X156749999Y-108245225D01*
X156532115Y-108264287D01*
X156532105Y-108264289D01*
X156320849Y-108320894D01*
X156320840Y-108320898D01*
X156122614Y-108413332D01*
X156122612Y-108413333D01*
X156060428Y-108456875D01*
X156060427Y-108456875D01*
X152350000Y-108456875D01*
X152350000Y-108375000D01*
X150750000Y-108375000D01*
X150750000Y-109287499D01*
X150249999Y-109287499D01*
X150250000Y-109287498D01*
X150250000Y-107875000D01*
X150750000Y-107875000D01*
X152349999Y-107875000D01*
X152349999Y-107662528D01*
X152349998Y-107662513D01*
X152339505Y-107559802D01*
X152284358Y-107393380D01*
X152284356Y-107393375D01*
X152192315Y-107244154D01*
X152068345Y-107120184D01*
X151919124Y-107028143D01*
X151919119Y-107028141D01*
X151752697Y-106972994D01*
X151752690Y-106972993D01*
X151649986Y-106962500D01*
X150750000Y-106962500D01*
X150750000Y-107875000D01*
X150250000Y-107875000D01*
X150250000Y-106962500D01*
X149350028Y-106962500D01*
X149350012Y-106962501D01*
X149247302Y-106972994D01*
X149080880Y-107028141D01*
X149080875Y-107028143D01*
X148931654Y-107120184D01*
X148807684Y-107244154D01*
X148715643Y-107393375D01*
X148715641Y-107393380D01*
X148660494Y-107559802D01*
X148660493Y-107559808D01*
X148657655Y-107587588D01*
X148631257Y-107652279D01*
X148574076Y-107692429D01*
X148504265Y-107695291D01*
X148469202Y-107680523D01*
X148458843Y-107674134D01*
X148444336Y-107665186D01*
X148277799Y-107610001D01*
X148277797Y-107610000D01*
X148175012Y-107599500D01*
X146825000Y-107599500D01*
X146824983Y-107599501D01*
X146722205Y-107610000D01*
X146722202Y-107610001D01*
X146618906Y-107644231D01*
X146555668Y-107665186D01*
X146555666Y-107665186D01*
X146548813Y-107667458D01*
X146547942Y-107664829D01*
X146491425Y-107673383D01*
X146427657Y-107644829D01*
X146426961Y-107644231D01*
X146409718Y-107629290D01*
X146369492Y-107594433D01*
X146369491Y-107594432D01*
X146369487Y-107594430D01*
X146238621Y-107534664D01*
X146238616Y-107534662D01*
X146238615Y-107534662D01*
X146171576Y-107514977D01*
X146171578Y-107514977D01*
X146171573Y-107514976D01*
X146124100Y-107508150D01*
X146029156Y-107494500D01*
X139387111Y-107494500D01*
X139278462Y-107508343D01*
X139260353Y-107510651D01*
X139260343Y-107510653D01*
X139200158Y-107526243D01*
X139200156Y-107526243D01*
X139081491Y-107573666D01*
X138966934Y-107660702D01*
X138917881Y-107710458D01*
X138917873Y-107710468D01*
X138877431Y-107765302D01*
X138821797Y-107807571D01*
X138752143Y-107813051D01*
X138731991Y-107806992D01*
X138493267Y-107712475D01*
X138493264Y-107712474D01*
X138200697Y-107637357D01*
X137901038Y-107599500D01*
X137901029Y-107599500D01*
X137598975Y-107599500D01*
X137598965Y-107599500D01*
X137299306Y-107637357D01*
X137006739Y-107712474D01*
X137006736Y-107712475D01*
X136768630Y-107806748D01*
X136699052Y-107813125D01*
X136637072Y-107780872D01*
X136618670Y-107758499D01*
X136607718Y-107741457D01*
X136582605Y-107712475D01*
X136561969Y-107688659D01*
X136561965Y-107688656D01*
X136561963Y-107688653D01*
X136453229Y-107594433D01*
X136453226Y-107594431D01*
X136453224Y-107594430D01*
X136322358Y-107534664D01*
X136322353Y-107534662D01*
X136322352Y-107534662D01*
X136255313Y-107514977D01*
X136255315Y-107514977D01*
X136255310Y-107514976D01*
X136207837Y-107508150D01*
X136112893Y-107494500D01*
X136112891Y-107494500D01*
X132404177Y-107494500D01*
X132337138Y-107474815D01*
X132291383Y-107422011D01*
X132280269Y-107365736D01*
X132317154Y-106406729D01*
X132339399Y-106340500D01*
X132393923Y-106296808D01*
X132441061Y-106287499D01*
X133250001Y-106287499D01*
X133750002Y-106287499D01*
X134649974Y-106287499D01*
X134649988Y-106287498D01*
X134752699Y-106277005D01*
X134919121Y-106221858D01*
X134919126Y-106221856D01*
X135068347Y-106129815D01*
X135162321Y-106035842D01*
X135223644Y-106002357D01*
X135293336Y-106007341D01*
X135337683Y-106035842D01*
X135431656Y-106129815D01*
X135580877Y-106221856D01*
X135580882Y-106221858D01*
X135747304Y-106277005D01*
X135747311Y-106277006D01*
X135850021Y-106287499D01*
X136750001Y-106287499D01*
X137250002Y-106287499D01*
X138149974Y-106287499D01*
X138149988Y-106287498D01*
X138252699Y-106277005D01*
X138419121Y-106221858D01*
X138419126Y-106221856D01*
X138568347Y-106129815D01*
X138662321Y-106035842D01*
X138723644Y-106002357D01*
X138793336Y-106007341D01*
X138837683Y-106035842D01*
X138931656Y-106129815D01*
X139080877Y-106221856D01*
X139080882Y-106221858D01*
X139247304Y-106277005D01*
X139247311Y-106277006D01*
X139350021Y-106287499D01*
X140250001Y-106287499D01*
X140750002Y-106287499D01*
X141649974Y-106287499D01*
X141649988Y-106287498D01*
X141752699Y-106277005D01*
X141919121Y-106221858D01*
X141919126Y-106221856D01*
X142068347Y-106129815D01*
X142162321Y-106035842D01*
X142223644Y-106002357D01*
X142293336Y-106007341D01*
X142337683Y-106035842D01*
X142431656Y-106129815D01*
X142580877Y-106221856D01*
X142580882Y-106221858D01*
X142747304Y-106277005D01*
X142747311Y-106277006D01*
X142850021Y-106287499D01*
X143750001Y-106287499D01*
X144250002Y-106287499D01*
X145149974Y-106287499D01*
X145149988Y-106287498D01*
X145252699Y-106277005D01*
X145419121Y-106221858D01*
X145419126Y-106221856D01*
X145568347Y-106129815D01*
X145692317Y-106005845D01*
X145784358Y-105856624D01*
X145784360Y-105856619D01*
X145839507Y-105690197D01*
X145839508Y-105690190D01*
X145850001Y-105587486D01*
X145850002Y-105587473D01*
X145850002Y-105375000D01*
X144250002Y-105375000D01*
X144250002Y-106287499D01*
X143750001Y-106287499D01*
X143750002Y-106287498D01*
X143750002Y-105375000D01*
X140750002Y-105375000D01*
X140750002Y-106287499D01*
X140250001Y-106287499D01*
X140250002Y-106287498D01*
X140250002Y-105375000D01*
X137250002Y-105375000D01*
X137250002Y-106287499D01*
X136750001Y-106287499D01*
X136750002Y-106287498D01*
X136750002Y-105375000D01*
X133750002Y-105375000D01*
X133750002Y-106287499D01*
X133250001Y-106287499D01*
X133250002Y-106287498D01*
X133250002Y-105249000D01*
X133269687Y-105181961D01*
X133322491Y-105136206D01*
X133374002Y-105125000D01*
X133500002Y-105125000D01*
X133500002Y-104999000D01*
X133519687Y-104931961D01*
X133572491Y-104886206D01*
X133624002Y-104875000D01*
X143750002Y-104875000D01*
X144250002Y-104875000D01*
X145850001Y-104875000D01*
X145850001Y-104662528D01*
X145850000Y-104662513D01*
X145839507Y-104559802D01*
X145784360Y-104393380D01*
X145784358Y-104393375D01*
X145692317Y-104244154D01*
X145568347Y-104120184D01*
X145419126Y-104028143D01*
X145419121Y-104028141D01*
X145252699Y-103972994D01*
X145252692Y-103972993D01*
X145149988Y-103962500D01*
X144250002Y-103962500D01*
X144250002Y-104875000D01*
X143750002Y-104875000D01*
X143750002Y-103962500D01*
X143186097Y-103962500D01*
X143119058Y-103942815D01*
X143073303Y-103890011D01*
X143063359Y-103820853D01*
X143092384Y-103757297D01*
X143098402Y-103750833D01*
X143649918Y-103199318D01*
X143711241Y-103165833D01*
X143737599Y-103162999D01*
X145150004Y-103162999D01*
X145150010Y-103162999D01*
X145252799Y-103152499D01*
X145419336Y-103097314D01*
X145568658Y-103005212D01*
X145692714Y-102881156D01*
X145784816Y-102731834D01*
X145840001Y-102565297D01*
X145841220Y-102553365D01*
X145867615Y-102488673D01*
X145924796Y-102448521D01*
X145994607Y-102445657D01*
X146012014Y-102451399D01*
X146093240Y-102485044D01*
X146210641Y-102500500D01*
X146475271Y-102500499D01*
X146542310Y-102520183D01*
X146562952Y-102536818D01*
X146713183Y-102687049D01*
X146746668Y-102748372D01*
X146749502Y-102774730D01*
X146749502Y-104411414D01*
X146729817Y-104478453D01*
X146677013Y-104524208D01*
X146664507Y-104529120D01*
X146555668Y-104565186D01*
X146555665Y-104565187D01*
X146406344Y-104657289D01*
X146282291Y-104781342D01*
X146190189Y-104930663D01*
X146190187Y-104930668D01*
X146168862Y-104995024D01*
X146135003Y-105097203D01*
X146135003Y-105097204D01*
X146135002Y-105097204D01*
X146124502Y-105199983D01*
X146124502Y-106100001D01*
X146124503Y-106100019D01*
X146135002Y-106202796D01*
X146135003Y-106202799D01*
X146184708Y-106352796D01*
X146190188Y-106369334D01*
X146282290Y-106518656D01*
X146406346Y-106642712D01*
X146555668Y-106734814D01*
X146722205Y-106789999D01*
X146824993Y-106800500D01*
X148175010Y-106800499D01*
X148277799Y-106789999D01*
X148444336Y-106734814D01*
X148593658Y-106642712D01*
X148711384Y-106524986D01*
X154150003Y-106524986D01*
X154160496Y-106627697D01*
X154215643Y-106794119D01*
X154215645Y-106794124D01*
X154307686Y-106943345D01*
X154431656Y-107067315D01*
X154580877Y-107159356D01*
X154580882Y-107159358D01*
X154747304Y-107214505D01*
X154747311Y-107214506D01*
X154850021Y-107224999D01*
X155750001Y-107224999D01*
X156250002Y-107224999D01*
X157149974Y-107224999D01*
X157149988Y-107224998D01*
X157252699Y-107214505D01*
X157419121Y-107159358D01*
X157419126Y-107159356D01*
X157568347Y-107067315D01*
X157692317Y-106943345D01*
X157784358Y-106794124D01*
X157784360Y-106794119D01*
X157839507Y-106627697D01*
X157839508Y-106627690D01*
X157850001Y-106524986D01*
X157850002Y-106524973D01*
X157850002Y-106312500D01*
X156250002Y-106312500D01*
X156250002Y-107224999D01*
X155750001Y-107224999D01*
X155750002Y-107224998D01*
X155750002Y-106312500D01*
X154150003Y-106312500D01*
X154150003Y-106524986D01*
X148711384Y-106524986D01*
X148717714Y-106518656D01*
X148809816Y-106369334D01*
X148865001Y-106202797D01*
X148867819Y-106175206D01*
X148894213Y-106110516D01*
X148951393Y-106070363D01*
X149021204Y-106067499D01*
X149056273Y-106082268D01*
X149080666Y-106097314D01*
X149247203Y-106152499D01*
X149349991Y-106163000D01*
X151650008Y-106162999D01*
X151752797Y-106152499D01*
X151919334Y-106097314D01*
X152068656Y-106005212D01*
X152192712Y-105881156D01*
X152284814Y-105731834D01*
X152328495Y-105600013D01*
X154150002Y-105600013D01*
X154150002Y-105812500D01*
X155750002Y-105812500D01*
X155750002Y-104900000D01*
X154850030Y-104900000D01*
X154850014Y-104900001D01*
X154747304Y-104910494D01*
X154580882Y-104965641D01*
X154580877Y-104965643D01*
X154431656Y-105057684D01*
X154307686Y-105181654D01*
X154215645Y-105330875D01*
X154215643Y-105330880D01*
X154160496Y-105497302D01*
X154160495Y-105497309D01*
X154150002Y-105600013D01*
X152328495Y-105600013D01*
X152339999Y-105565297D01*
X152350500Y-105462509D01*
X152350499Y-104537492D01*
X152339999Y-104434703D01*
X152284814Y-104268166D01*
X152192712Y-104118844D01*
X152068656Y-103994788D01*
X151919334Y-103902686D01*
X151752797Y-103847501D01*
X151752795Y-103847500D01*
X151650016Y-103837000D01*
X151650009Y-103837000D01*
X149449730Y-103837000D01*
X149382691Y-103817315D01*
X149362049Y-103800681D01*
X148286821Y-102725453D01*
X148253336Y-102664130D01*
X148250502Y-102637772D01*
X148250502Y-102338579D01*
X148221661Y-102193592D01*
X148221660Y-102193591D01*
X148221660Y-102193587D01*
X148182173Y-102098256D01*
X148165089Y-102057011D01*
X148165084Y-102057002D01*
X148162010Y-102052401D01*
X148145007Y-102026955D01*
X148124129Y-101960279D01*
X148125171Y-101941870D01*
X148125502Y-101939361D01*
X148125501Y-101660640D01*
X148110046Y-101543238D01*
X148110044Y-101543234D01*
X148101437Y-101522455D01*
X148093967Y-101452986D01*
X148101437Y-101427545D01*
X148110046Y-101406762D01*
X148125502Y-101289361D01*
X148125501Y-101010640D01*
X148110046Y-100893238D01*
X148110044Y-100893234D01*
X148101437Y-100872455D01*
X148093967Y-100802986D01*
X148101437Y-100777545D01*
X148110046Y-100756762D01*
X148125502Y-100639361D01*
X148125501Y-100360640D01*
X148110046Y-100243238D01*
X148110044Y-100243234D01*
X148101437Y-100222455D01*
X148093967Y-100152986D01*
X148101437Y-100127545D01*
X148107801Y-100112181D01*
X148110046Y-100106762D01*
X148125502Y-99989361D01*
X148125501Y-99710640D01*
X148110046Y-99593238D01*
X148110044Y-99593234D01*
X148101437Y-99572455D01*
X148093967Y-99502986D01*
X148101437Y-99477545D01*
X148107801Y-99462181D01*
X148110046Y-99456762D01*
X148125502Y-99339361D01*
X148125501Y-99060640D01*
X148110046Y-98943238D01*
X148110044Y-98943234D01*
X148101437Y-98922455D01*
X148093967Y-98852986D01*
X148101437Y-98827545D01*
X148110046Y-98806762D01*
X148125502Y-98689361D01*
X148125501Y-98410640D01*
X148124102Y-98400016D01*
X148118552Y-98357853D01*
X148110046Y-98293238D01*
X148110044Y-98293234D01*
X148101437Y-98272455D01*
X148093967Y-98202986D01*
X148101437Y-98177545D01*
X148110046Y-98156762D01*
X148125502Y-98039361D01*
X148125501Y-97760640D01*
X148110046Y-97643238D01*
X148110044Y-97643234D01*
X148101437Y-97622455D01*
X148093967Y-97552986D01*
X148101437Y-97527545D01*
X148110046Y-97506762D01*
X148125502Y-97389361D01*
X148125501Y-97110640D01*
X148110046Y-96993238D01*
X148110044Y-96993234D01*
X148101437Y-96972455D01*
X148093967Y-96902986D01*
X148101437Y-96877545D01*
X148110046Y-96856762D01*
X148125502Y-96739361D01*
X148125501Y-96460640D01*
X148125501Y-96460638D01*
X148125501Y-96460636D01*
X148110048Y-96343246D01*
X148110046Y-96343239D01*
X148110046Y-96343238D01*
X148101164Y-96321797D01*
X148093696Y-96252328D01*
X148101166Y-96226890D01*
X148109557Y-96206632D01*
X148109557Y-96206630D01*
X148117014Y-96150000D01*
X148074502Y-96150000D01*
X148007463Y-96130315D01*
X147976127Y-96101487D01*
X147953286Y-96071720D01*
X147953284Y-96071719D01*
X147953284Y-96071718D01*
X147827843Y-95975464D01*
X147827841Y-95975463D01*
X147823818Y-95972376D01*
X147782616Y-95915948D01*
X147778461Y-95846202D01*
X147812673Y-95785281D01*
X147874391Y-95752529D01*
X147899305Y-95750000D01*
X148117012Y-95750000D01*
X148117013Y-95749998D01*
X148109559Y-95693372D01*
X148109557Y-95693366D01*
X148049102Y-95547414D01*
X147952926Y-95422075D01*
X147827588Y-95325899D01*
X147681636Y-95265445D01*
X147681632Y-95265444D01*
X147564332Y-95250000D01*
X147087502Y-95250000D01*
X147087502Y-95775500D01*
X147067817Y-95842539D01*
X147015013Y-95888294D01*
X146963502Y-95899500D01*
X146811502Y-95899500D01*
X146744463Y-95879815D01*
X146698708Y-95827011D01*
X146687502Y-95775500D01*
X146687502Y-95250000D01*
X146210677Y-95250000D01*
X146093373Y-95265442D01*
X146093368Y-95265444D01*
X145947416Y-95325899D01*
X145822077Y-95422075D01*
X145725901Y-95547413D01*
X145665447Y-95693365D01*
X145665446Y-95693369D01*
X145652502Y-95791686D01*
X145624235Y-95855582D01*
X145565911Y-95894053D01*
X145529563Y-95899500D01*
X143941520Y-95899500D01*
X143874481Y-95879815D01*
X143853839Y-95863181D01*
X143323386Y-95332728D01*
X143289901Y-95271405D01*
X143293360Y-95206047D01*
X143340001Y-95065297D01*
X143350502Y-94962509D01*
X143350501Y-94037492D01*
X143340001Y-93934703D01*
X143284816Y-93768166D01*
X143192714Y-93618844D01*
X143068658Y-93494788D01*
X142919336Y-93402686D01*
X142752799Y-93347501D01*
X142752797Y-93347500D01*
X142650018Y-93337000D01*
X142650011Y-93337000D01*
X141379021Y-93337000D01*
X141311982Y-93317315D01*
X141291340Y-93300681D01*
X140739839Y-92749180D01*
X140706354Y-92687857D01*
X140711338Y-92618165D01*
X140753210Y-92562232D01*
X140818674Y-92537815D01*
X140827520Y-92537499D01*
X141250002Y-92537499D01*
X141750002Y-92537499D01*
X142649974Y-92537499D01*
X142649988Y-92537498D01*
X142752699Y-92527005D01*
X142919121Y-92471858D01*
X142919126Y-92471856D01*
X143068347Y-92379815D01*
X143192317Y-92255845D01*
X143284358Y-92106624D01*
X143284360Y-92106619D01*
X143339507Y-91940197D01*
X143339508Y-91940190D01*
X143350001Y-91837486D01*
X143350002Y-91837473D01*
X143350002Y-91625000D01*
X141750002Y-91625000D01*
X141750002Y-92537499D01*
X141250002Y-92537499D01*
X141250002Y-91625000D01*
X134374002Y-91625000D01*
X134306963Y-91605315D01*
X134261208Y-91552511D01*
X134250002Y-91501000D01*
X134250002Y-91375000D01*
X134124002Y-91375000D01*
X134056963Y-91355315D01*
X134011208Y-91302511D01*
X134000002Y-91251000D01*
X134000002Y-91125000D01*
X134500002Y-91125000D01*
X137625002Y-91125000D01*
X138125002Y-91125000D01*
X141250002Y-91125000D01*
X141750002Y-91125000D01*
X143350001Y-91125000D01*
X143350001Y-90912528D01*
X143350000Y-90912513D01*
X143339507Y-90809802D01*
X143284360Y-90643380D01*
X143284358Y-90643375D01*
X143257595Y-90599986D01*
X147562503Y-90599986D01*
X147572996Y-90702697D01*
X147628143Y-90869119D01*
X147628145Y-90869124D01*
X147720186Y-91018345D01*
X147844156Y-91142315D01*
X147993377Y-91234356D01*
X147993382Y-91234358D01*
X148159804Y-91289505D01*
X148159811Y-91289506D01*
X148262521Y-91299999D01*
X148687501Y-91299999D01*
X149187502Y-91299999D01*
X149612474Y-91299999D01*
X149612488Y-91299998D01*
X149715199Y-91289505D01*
X149881621Y-91234358D01*
X149881626Y-91234356D01*
X150030847Y-91142315D01*
X150154817Y-91018345D01*
X150246858Y-90869124D01*
X150246860Y-90869119D01*
X150302007Y-90702697D01*
X150302008Y-90702690D01*
X150312501Y-90599986D01*
X150312502Y-90599973D01*
X150312502Y-90400000D01*
X149187502Y-90400000D01*
X149187502Y-91299999D01*
X148687501Y-91299999D01*
X148687502Y-91299998D01*
X148687502Y-90400000D01*
X147562503Y-90400000D01*
X147562503Y-90599986D01*
X143257595Y-90599986D01*
X143192317Y-90494154D01*
X143068347Y-90370184D01*
X142919126Y-90278143D01*
X142919121Y-90278141D01*
X142752699Y-90222994D01*
X142752692Y-90222993D01*
X142649988Y-90212500D01*
X141750002Y-90212500D01*
X141750002Y-91125000D01*
X141250002Y-91125000D01*
X141250002Y-90212500D01*
X140350030Y-90212500D01*
X140350014Y-90212501D01*
X140247304Y-90222994D01*
X140080882Y-90278141D01*
X140080877Y-90278143D01*
X139931656Y-90370184D01*
X139807684Y-90494156D01*
X139793040Y-90517899D01*
X139741092Y-90564623D01*
X139672129Y-90575844D01*
X139608047Y-90548001D01*
X139581964Y-90517899D01*
X139567319Y-90494156D01*
X139443347Y-90370184D01*
X139294126Y-90278143D01*
X139294121Y-90278141D01*
X139127699Y-90222994D01*
X139127692Y-90222993D01*
X139024988Y-90212500D01*
X138125002Y-90212500D01*
X138125002Y-91125000D01*
X137625002Y-91125000D01*
X137625002Y-90212500D01*
X136725030Y-90212500D01*
X136725014Y-90212501D01*
X136622304Y-90222994D01*
X136455882Y-90278141D01*
X136455877Y-90278143D01*
X136306656Y-90370184D01*
X136182684Y-90494156D01*
X136168040Y-90517899D01*
X136116092Y-90564623D01*
X136047129Y-90575844D01*
X135983047Y-90548001D01*
X135956964Y-90517899D01*
X135942319Y-90494156D01*
X135818347Y-90370184D01*
X135669126Y-90278143D01*
X135669121Y-90278141D01*
X135502699Y-90222994D01*
X135502692Y-90222993D01*
X135399988Y-90212500D01*
X134500002Y-90212500D01*
X134500002Y-91125000D01*
X134000002Y-91125000D01*
X134000002Y-90212500D01*
X133100030Y-90212500D01*
X133100014Y-90212501D01*
X132997304Y-90222994D01*
X132830882Y-90278141D01*
X132830877Y-90278143D01*
X132681656Y-90370184D01*
X132557686Y-90494154D01*
X132465645Y-90643375D01*
X132465643Y-90643380D01*
X132410496Y-90809802D01*
X132410495Y-90809810D01*
X132403644Y-90876868D01*
X132377247Y-90941560D01*
X132320066Y-90981711D01*
X132250255Y-90984574D01*
X132192605Y-90951946D01*
X131750002Y-90509343D01*
X131750002Y-89700013D01*
X147562502Y-89700013D01*
X147562502Y-89900000D01*
X148687502Y-89900000D01*
X149187502Y-89900000D01*
X150312501Y-89900000D01*
X150312501Y-89700028D01*
X150312500Y-89700013D01*
X150302007Y-89597302D01*
X150246860Y-89430880D01*
X150246858Y-89430875D01*
X150154817Y-89281654D01*
X150030847Y-89157684D01*
X149881626Y-89065643D01*
X149881621Y-89065641D01*
X149715199Y-89010494D01*
X149715192Y-89010493D01*
X149612488Y-89000000D01*
X149187502Y-89000000D01*
X149187502Y-89900000D01*
X148687502Y-89900000D01*
X148687502Y-89000000D01*
X148262530Y-89000000D01*
X148262514Y-89000001D01*
X148159804Y-89010494D01*
X147993382Y-89065641D01*
X147993377Y-89065643D01*
X147844156Y-89157684D01*
X147720186Y-89281654D01*
X147628145Y-89430875D01*
X147628143Y-89430880D01*
X147572996Y-89597302D01*
X147572995Y-89597309D01*
X147562502Y-89700013D01*
X131750002Y-89700013D01*
X131750002Y-88750000D01*
X154249500Y-88750000D01*
X154249500Y-89102929D01*
X154280942Y-89381992D01*
X154280945Y-89382010D01*
X154343439Y-89655815D01*
X154343443Y-89655827D01*
X154436200Y-89920909D01*
X154558053Y-90173940D01*
X154558055Y-90173943D01*
X154707477Y-90411746D01*
X154736538Y-90448187D01*
X154762946Y-90512874D01*
X154750191Y-90581569D01*
X154702320Y-90632463D01*
X154639592Y-90649500D01*
X154537501Y-90649500D01*
X154537482Y-90649501D01*
X154434705Y-90660000D01*
X154434702Y-90660001D01*
X154268170Y-90715185D01*
X154268165Y-90715187D01*
X154118844Y-90807289D01*
X153994791Y-90931342D01*
X153902689Y-91080663D01*
X153902687Y-91080668D01*
X153874851Y-91164670D01*
X153847503Y-91247203D01*
X153847503Y-91247204D01*
X153847502Y-91247204D01*
X153837002Y-91349983D01*
X153837002Y-93650001D01*
X153837003Y-93650018D01*
X153847502Y-93752796D01*
X153847503Y-93752799D01*
X153902687Y-93919331D01*
X153902689Y-93919336D01*
X153921911Y-93950500D01*
X153994790Y-94068656D01*
X154118846Y-94192712D01*
X154240599Y-94267809D01*
X154287323Y-94319755D01*
X154299502Y-94373347D01*
X154299502Y-95158478D01*
X154279817Y-95225517D01*
X154263183Y-95246159D01*
X153955989Y-95553352D01*
X153894666Y-95586837D01*
X153824974Y-95581853D01*
X153769933Y-95541157D01*
X153705100Y-95456666D01*
X153678285Y-95421719D01*
X153625422Y-95381156D01*
X153552843Y-95325464D01*
X153535656Y-95318345D01*
X153406764Y-95264956D01*
X153406762Y-95264955D01*
X153289372Y-95249501D01*
X153289369Y-95249500D01*
X153289363Y-95249500D01*
X153289356Y-95249500D01*
X152954021Y-95249500D01*
X152886982Y-95229815D01*
X152866340Y-95213181D01*
X152611821Y-94958662D01*
X152578336Y-94897339D01*
X152575502Y-94870981D01*
X152575502Y-94373347D01*
X152595187Y-94306308D01*
X152634403Y-94267810D01*
X152756158Y-94192712D01*
X152880214Y-94068656D01*
X152972316Y-93919334D01*
X153027501Y-93752797D01*
X153038002Y-93650009D01*
X153038001Y-91349992D01*
X153027501Y-91247203D01*
X152972316Y-91080666D01*
X152880214Y-90931344D01*
X152756158Y-90807288D01*
X152606836Y-90715186D01*
X152440299Y-90660001D01*
X152440297Y-90660000D01*
X152337512Y-90649500D01*
X151412500Y-90649500D01*
X151412482Y-90649501D01*
X151309705Y-90660000D01*
X151309702Y-90660001D01*
X151143170Y-90715185D01*
X151143165Y-90715187D01*
X150993844Y-90807289D01*
X150869791Y-90931342D01*
X150777689Y-91080663D01*
X150777687Y-91080668D01*
X150749851Y-91164670D01*
X150722503Y-91247203D01*
X150722503Y-91247204D01*
X150722502Y-91247204D01*
X150712002Y-91349983D01*
X150712002Y-91349991D01*
X150712002Y-91940197D01*
X150712003Y-92425500D01*
X150692319Y-92492539D01*
X150639515Y-92538294D01*
X150588003Y-92549500D01*
X150328140Y-92549500D01*
X150261101Y-92529815D01*
X150222601Y-92490597D01*
X150155214Y-92381344D01*
X150031158Y-92257288D01*
X149938390Y-92200069D01*
X149881838Y-92165187D01*
X149881833Y-92165185D01*
X149880364Y-92164698D01*
X149715299Y-92110001D01*
X149715297Y-92110000D01*
X149612512Y-92099500D01*
X148262500Y-92099500D01*
X148262483Y-92099501D01*
X148159705Y-92110000D01*
X148159702Y-92110001D01*
X147993170Y-92165185D01*
X147993165Y-92165187D01*
X147843844Y-92257289D01*
X147719791Y-92381342D01*
X147627689Y-92530663D01*
X147627687Y-92530668D01*
X147625319Y-92537815D01*
X147572503Y-92697203D01*
X147572503Y-92697204D01*
X147572502Y-92697204D01*
X147562002Y-92799983D01*
X147562002Y-93700001D01*
X147562003Y-93700019D01*
X147572502Y-93802796D01*
X147572503Y-93802799D01*
X147627687Y-93969331D01*
X147627689Y-93969336D01*
X147652403Y-94009403D01*
X147719790Y-94118656D01*
X147843846Y-94242712D01*
X147993168Y-94334814D01*
X148159705Y-94389999D01*
X148262493Y-94400500D01*
X149612510Y-94400499D01*
X149715299Y-94389999D01*
X149881836Y-94334814D01*
X150031158Y-94242712D01*
X150155214Y-94118656D01*
X150222601Y-94009402D01*
X150274549Y-93962679D01*
X150328140Y-93950500D01*
X150727704Y-93950500D01*
X150794743Y-93970185D01*
X150833241Y-94009401D01*
X150869790Y-94068656D01*
X150993846Y-94192712D01*
X151115599Y-94267809D01*
X151162323Y-94319755D01*
X151174502Y-94373347D01*
X151174502Y-95143506D01*
X151174502Y-95281494D01*
X151174502Y-95281496D01*
X151174501Y-95281496D01*
X151201420Y-95416822D01*
X151201423Y-95416832D01*
X151254224Y-95544307D01*
X151330889Y-95659045D01*
X151343824Y-95671980D01*
X151377309Y-95733303D01*
X151379082Y-95775845D01*
X151374502Y-95810636D01*
X151374502Y-96089363D01*
X151389955Y-96206753D01*
X151389959Y-96206765D01*
X151398568Y-96227550D01*
X151406035Y-96297019D01*
X151398568Y-96322450D01*
X151389959Y-96343234D01*
X151389957Y-96343239D01*
X151374502Y-96460638D01*
X151374502Y-96739363D01*
X151389955Y-96856753D01*
X151389959Y-96856765D01*
X151398568Y-96877550D01*
X151406035Y-96947019D01*
X151398568Y-96972450D01*
X151389959Y-96993234D01*
X151389957Y-96993239D01*
X151374502Y-97110638D01*
X151374502Y-97389363D01*
X151389955Y-97506753D01*
X151389959Y-97506765D01*
X151398568Y-97527550D01*
X151406035Y-97597019D01*
X151398568Y-97622450D01*
X151389959Y-97643234D01*
X151389957Y-97643239D01*
X151374502Y-97760638D01*
X151374502Y-98039363D01*
X151389955Y-98156753D01*
X151389959Y-98156765D01*
X151398568Y-98177550D01*
X151406035Y-98247019D01*
X151398568Y-98272450D01*
X151389959Y-98293234D01*
X151389957Y-98293239D01*
X151374502Y-98410638D01*
X151374502Y-98689363D01*
X151389955Y-98806753D01*
X151389959Y-98806765D01*
X151398568Y-98827550D01*
X151406035Y-98897019D01*
X151398568Y-98922450D01*
X151389959Y-98943234D01*
X151389957Y-98943239D01*
X151374502Y-99060638D01*
X151374502Y-99339363D01*
X151389955Y-99456753D01*
X151389959Y-99456765D01*
X151398568Y-99477550D01*
X151406035Y-99547019D01*
X151398568Y-99572450D01*
X151389959Y-99593234D01*
X151389957Y-99593239D01*
X151374502Y-99710638D01*
X151374502Y-99989363D01*
X151389955Y-100106753D01*
X151389959Y-100106765D01*
X151398568Y-100127550D01*
X151406035Y-100197019D01*
X151398568Y-100222450D01*
X151389959Y-100243234D01*
X151389957Y-100243239D01*
X151374502Y-100360638D01*
X151374502Y-100639363D01*
X151389955Y-100756753D01*
X151389959Y-100756765D01*
X151398568Y-100777550D01*
X151406035Y-100847019D01*
X151398568Y-100872450D01*
X151389959Y-100893234D01*
X151389957Y-100893239D01*
X151374502Y-101010638D01*
X151374502Y-101289363D01*
X151389955Y-101406753D01*
X151389959Y-101406765D01*
X151398568Y-101427550D01*
X151406035Y-101497019D01*
X151398568Y-101522450D01*
X151389959Y-101543234D01*
X151389957Y-101543239D01*
X151374502Y-101660638D01*
X151374502Y-101939363D01*
X151389955Y-102056753D01*
X151389958Y-102056762D01*
X151449292Y-102200008D01*
X151450466Y-102202841D01*
X151546720Y-102328282D01*
X151672161Y-102424536D01*
X151818240Y-102485044D01*
X151935641Y-102500500D01*
X152200271Y-102500499D01*
X152267310Y-102520183D01*
X152287952Y-102536818D01*
X153271588Y-103520454D01*
X153301060Y-103540145D01*
X153345272Y-103569686D01*
X153394507Y-103602584D01*
X153394508Y-103602584D01*
X153394509Y-103602585D01*
X153394511Y-103602586D01*
X153531084Y-103659156D01*
X153531089Y-103659158D01*
X153531093Y-103659158D01*
X153531094Y-103659159D01*
X153676081Y-103688000D01*
X153676084Y-103688000D01*
X153676085Y-103688000D01*
X153823919Y-103688000D01*
X154157494Y-103688000D01*
X154224533Y-103707685D01*
X154263031Y-103746901D01*
X154307290Y-103818656D01*
X154431346Y-103942712D01*
X154580668Y-104034814D01*
X154747205Y-104089999D01*
X154849993Y-104100500D01*
X156237771Y-104100499D01*
X156304810Y-104120184D01*
X156325452Y-104136818D01*
X156876953Y-104688319D01*
X156910438Y-104749642D01*
X156905454Y-104819334D01*
X156863582Y-104875267D01*
X156798118Y-104899684D01*
X156789272Y-104900000D01*
X156250002Y-104900000D01*
X156250002Y-105812500D01*
X157850001Y-105812500D01*
X157850001Y-105716569D01*
X157869686Y-105649530D01*
X157922490Y-105603775D01*
X157991648Y-105593831D01*
X157998186Y-105594950D01*
X158012147Y-105597727D01*
X158026083Y-105600500D01*
X158026084Y-105600500D01*
X158390204Y-105600500D01*
X158457243Y-105620185D01*
X158495741Y-105659401D01*
X158532290Y-105718656D01*
X158656346Y-105842712D01*
X158805668Y-105934814D01*
X158914507Y-105970879D01*
X158971951Y-106010652D01*
X158998774Y-106075167D01*
X158999502Y-106088585D01*
X158999502Y-106573918D01*
X158999502Y-106573920D01*
X158999501Y-106573920D01*
X159028342Y-106718907D01*
X159028345Y-106718917D01*
X159084916Y-106855492D01*
X159114320Y-106899498D01*
X159114321Y-106899501D01*
X159167048Y-106978414D01*
X159167054Y-106978421D01*
X159719437Y-107530803D01*
X159752922Y-107592126D01*
X159755284Y-107629290D01*
X159744725Y-107749997D01*
X159744725Y-107750002D01*
X159751802Y-107830888D01*
X159762737Y-107955888D01*
X159763795Y-107967975D01*
X159763795Y-107967979D01*
X159820424Y-108179322D01*
X159820426Y-108179326D01*
X159820427Y-108179330D01*
X159852725Y-108248593D01*
X159912899Y-108377638D01*
X159912900Y-108377639D01*
X160038404Y-108556877D01*
X160193125Y-108711598D01*
X160372363Y-108837102D01*
X160570672Y-108929575D01*
X160570678Y-108929576D01*
X160570679Y-108929577D01*
X160601366Y-108937799D01*
X160782025Y-108986207D01*
X160964928Y-109002208D01*
X161000000Y-109005277D01*
X161000002Y-109005277D01*
X161000004Y-109005277D01*
X161028256Y-109002805D01*
X161217979Y-108986207D01*
X161429332Y-108929575D01*
X161627641Y-108837102D01*
X161806879Y-108711598D01*
X161961600Y-108556877D01*
X162087104Y-108377639D01*
X162179577Y-108179330D01*
X162236209Y-107967977D01*
X162254536Y-107758495D01*
X162255279Y-107750002D01*
X162255279Y-107749997D01*
X162250242Y-107692429D01*
X162236209Y-107532023D01*
X162179577Y-107320670D01*
X162087104Y-107122362D01*
X162087102Y-107122359D01*
X162087101Y-107122357D01*
X161961601Y-106943124D01*
X161903289Y-106884812D01*
X161806879Y-106788402D01*
X161635866Y-106668657D01*
X161627640Y-106662897D01*
X161528486Y-106616661D01*
X161429332Y-106570425D01*
X161429328Y-106570424D01*
X161429324Y-106570422D01*
X161217979Y-106513793D01*
X161000004Y-106494723D01*
X160999999Y-106494723D01*
X160879292Y-106505282D01*
X160810792Y-106491515D01*
X160780805Y-106469435D01*
X160536821Y-106225451D01*
X160503336Y-106164128D01*
X160500502Y-106137770D01*
X160500502Y-106088585D01*
X160520187Y-106021546D01*
X160572991Y-105975791D01*
X160585491Y-105970881D01*
X160694336Y-105934814D01*
X160843658Y-105842712D01*
X160912321Y-105774049D01*
X160973644Y-105740564D01*
X161043336Y-105745548D01*
X161087683Y-105774049D01*
X161156346Y-105842712D01*
X161305668Y-105934814D01*
X161472205Y-105989999D01*
X161574993Y-106000500D01*
X162925010Y-106000499D01*
X163027799Y-105989999D01*
X163194336Y-105934814D01*
X163343658Y-105842712D01*
X163467714Y-105718656D01*
X163559816Y-105569334D01*
X163615001Y-105402797D01*
X163625502Y-105300009D01*
X163625501Y-104399992D01*
X163625128Y-104396345D01*
X163615001Y-104297203D01*
X163615000Y-104297200D01*
X163597422Y-104244154D01*
X163559816Y-104130666D01*
X163559813Y-104130662D01*
X163558061Y-104126903D01*
X163557631Y-104124075D01*
X163557544Y-104123811D01*
X163557589Y-104123796D01*
X163547570Y-104057825D01*
X163576091Y-103994042D01*
X163634569Y-103955803D01*
X163670444Y-103950500D01*
X164758482Y-103950500D01*
X164825521Y-103970185D01*
X164846163Y-103986819D01*
X165503454Y-104644111D01*
X165503459Y-104644115D01*
X165523174Y-104657288D01*
X165572232Y-104690067D01*
X165618190Y-104720775D01*
X165618191Y-104720775D01*
X165618192Y-104720776D01*
X165745668Y-104773578D01*
X165745673Y-104773580D01*
X165745677Y-104773580D01*
X165745678Y-104773581D01*
X165881005Y-104800500D01*
X165881008Y-104800500D01*
X166919031Y-104800500D01*
X166982151Y-104817767D01*
X167039602Y-104851744D01*
X167081224Y-104863836D01*
X167197426Y-104897597D01*
X167197429Y-104897597D01*
X167197431Y-104897598D01*
X167234306Y-104900500D01*
X167234314Y-104900500D01*
X168765686Y-104900500D01*
X168765694Y-104900500D01*
X168802569Y-104897598D01*
X168802571Y-104897597D01*
X168802573Y-104897597D01*
X168844191Y-104885505D01*
X168960398Y-104851744D01*
X169101865Y-104768081D01*
X169218081Y-104651865D01*
X169301744Y-104510398D01*
X169347598Y-104352569D01*
X169350500Y-104315694D01*
X169350500Y-103884306D01*
X169347598Y-103847431D01*
X169344567Y-103837000D01*
X169313836Y-103731224D01*
X169301744Y-103689602D01*
X169218081Y-103548135D01*
X169214110Y-103541420D01*
X169216083Y-103540252D01*
X169194769Y-103485965D01*
X169208448Y-103417447D01*
X169214136Y-103408595D01*
X169214110Y-103408580D01*
X169236317Y-103371030D01*
X169301744Y-103260398D01*
X169347598Y-103102569D01*
X169350500Y-103065694D01*
X169350500Y-102634306D01*
X169347598Y-102597431D01*
X169321850Y-102508808D01*
X169301745Y-102439606D01*
X169301744Y-102439603D01*
X169301744Y-102439602D01*
X169218081Y-102298135D01*
X169218079Y-102298133D01*
X169218076Y-102298129D01*
X169101870Y-102181923D01*
X169101862Y-102181917D01*
X168960396Y-102098255D01*
X168960393Y-102098254D01*
X168802573Y-102052402D01*
X168802567Y-102052401D01*
X168765701Y-102049500D01*
X168765694Y-102049500D01*
X167291519Y-102049500D01*
X167224480Y-102029815D01*
X167203838Y-102013181D01*
X166396546Y-101205888D01*
X166396545Y-101205887D01*
X166281807Y-101129222D01*
X166154332Y-101076421D01*
X166154322Y-101076418D01*
X166018996Y-101049500D01*
X166018994Y-101049500D01*
X166018993Y-101049500D01*
X163640640Y-101049500D01*
X163573601Y-101029815D01*
X163535101Y-100990597D01*
X163478644Y-100899065D01*
X163467714Y-100881344D01*
X163343658Y-100757288D01*
X163194336Y-100665186D01*
X163027799Y-100610001D01*
X163027797Y-100610000D01*
X162925018Y-100599500D01*
X162925011Y-100599500D01*
X162141521Y-100599500D01*
X162074482Y-100579815D01*
X162053840Y-100563181D01*
X161446548Y-99955888D01*
X161446547Y-99955887D01*
X161331809Y-99879222D01*
X161204334Y-99826421D01*
X161204324Y-99826418D01*
X161068998Y-99799500D01*
X161068996Y-99799500D01*
X161068995Y-99799500D01*
X160428019Y-99799500D01*
X160360980Y-99779815D01*
X160315225Y-99727011D01*
X160305281Y-99657853D01*
X160334306Y-99594297D01*
X160340338Y-99587819D01*
X160588796Y-99339360D01*
X160854772Y-99073382D01*
X160916093Y-99039899D01*
X160981452Y-99043358D01*
X161122203Y-99089999D01*
X161224991Y-99100500D01*
X162150008Y-99100499D01*
X162150016Y-99100498D01*
X162150019Y-99100498D01*
X162206302Y-99094748D01*
X162252797Y-99089999D01*
X162419334Y-99034814D01*
X162568656Y-98942712D01*
X162692712Y-98818656D01*
X162784814Y-98669334D01*
X162839999Y-98502797D01*
X162850500Y-98400009D01*
X162850500Y-98399986D01*
X163650001Y-98399986D01*
X163660494Y-98502697D01*
X163715641Y-98669119D01*
X163715643Y-98669124D01*
X163807684Y-98818345D01*
X163931654Y-98942315D01*
X164080875Y-99034356D01*
X164080880Y-99034358D01*
X164247302Y-99089505D01*
X164247309Y-99089506D01*
X164350019Y-99099999D01*
X164562499Y-99099999D01*
X165062500Y-99099999D01*
X165274972Y-99099999D01*
X165274986Y-99099998D01*
X165377697Y-99089505D01*
X165544119Y-99034358D01*
X165544124Y-99034356D01*
X165693345Y-98942315D01*
X165817315Y-98818345D01*
X165909356Y-98669124D01*
X165909358Y-98669119D01*
X165964505Y-98502697D01*
X165964506Y-98502690D01*
X165974999Y-98399986D01*
X165975000Y-98399973D01*
X165975000Y-97500000D01*
X165062500Y-97500000D01*
X165062500Y-99099999D01*
X164562499Y-99099999D01*
X164562500Y-99099998D01*
X164562500Y-97500000D01*
X163650001Y-97500000D01*
X163650001Y-98399986D01*
X162850500Y-98399986D01*
X162850499Y-97129017D01*
X162870184Y-97061979D01*
X162886813Y-97041342D01*
X163438320Y-96489836D01*
X163499642Y-96456352D01*
X163569334Y-96461336D01*
X163625267Y-96503208D01*
X163649684Y-96568672D01*
X163650000Y-96577518D01*
X163650000Y-97000000D01*
X164562500Y-97000000D01*
X165062500Y-97000000D01*
X165974999Y-97000000D01*
X165974999Y-96100028D01*
X165974998Y-96100013D01*
X165964505Y-95997302D01*
X165909358Y-95830880D01*
X165909356Y-95830875D01*
X165817315Y-95681654D01*
X165723342Y-95587681D01*
X165689857Y-95526358D01*
X165694841Y-95456666D01*
X165723342Y-95412319D01*
X165817315Y-95318345D01*
X165909356Y-95169124D01*
X165909358Y-95169119D01*
X165964505Y-95002697D01*
X165964506Y-95002690D01*
X165974999Y-94899986D01*
X165975000Y-94899973D01*
X165975000Y-94000000D01*
X165062500Y-94000000D01*
X165062500Y-97000000D01*
X164562500Y-97000000D01*
X164562500Y-93874000D01*
X164582185Y-93806961D01*
X164634989Y-93761206D01*
X164686500Y-93750000D01*
X164812500Y-93750000D01*
X164812500Y-93624000D01*
X164832185Y-93556961D01*
X164884989Y-93511206D01*
X164936500Y-93500000D01*
X165974999Y-93500000D01*
X165974999Y-92600028D01*
X165974998Y-92600013D01*
X165964505Y-92497302D01*
X165920169Y-92363504D01*
X165917767Y-92293676D01*
X165953499Y-92233634D01*
X166016019Y-92202441D01*
X166037875Y-92200500D01*
X166919031Y-92200500D01*
X166982151Y-92217767D01*
X167039602Y-92251744D01*
X167058688Y-92257289D01*
X167197426Y-92297597D01*
X167197429Y-92297597D01*
X167197431Y-92297598D01*
X167234306Y-92300500D01*
X167234314Y-92300500D01*
X168765686Y-92300500D01*
X168765694Y-92300500D01*
X168802569Y-92297598D01*
X168802571Y-92297597D01*
X168802573Y-92297597D01*
X168847015Y-92284685D01*
X168960398Y-92251744D01*
X169101865Y-92168081D01*
X169218081Y-92051865D01*
X169301744Y-91910398D01*
X169347598Y-91752569D01*
X169350500Y-91715694D01*
X169350500Y-91284306D01*
X169347598Y-91247431D01*
X169347532Y-91247204D01*
X169301745Y-91089606D01*
X169301744Y-91089603D01*
X169301744Y-91089602D01*
X169218081Y-90948135D01*
X169214110Y-90941420D01*
X169216083Y-90940252D01*
X169194769Y-90885965D01*
X169208448Y-90817447D01*
X169214136Y-90808595D01*
X169214110Y-90808580D01*
X169228026Y-90785048D01*
X169301744Y-90660398D01*
X169347598Y-90502569D01*
X169350500Y-90465694D01*
X169350500Y-90034306D01*
X169347598Y-89997431D01*
X169301744Y-89839602D01*
X169218081Y-89698135D01*
X169218079Y-89698133D01*
X169218076Y-89698129D01*
X169101870Y-89581923D01*
X169101862Y-89581917D01*
X169017943Y-89532288D01*
X168960398Y-89498256D01*
X168960397Y-89498255D01*
X168960396Y-89498255D01*
X168960393Y-89498254D01*
X168802573Y-89452402D01*
X168802567Y-89452401D01*
X168765701Y-89449500D01*
X168765694Y-89449500D01*
X167234306Y-89449500D01*
X167234298Y-89449500D01*
X167197432Y-89452401D01*
X167197426Y-89452402D01*
X167039606Y-89498254D01*
X167039603Y-89498255D01*
X166982152Y-89532232D01*
X166919031Y-89549500D01*
X164118504Y-89549500D01*
X163983177Y-89576418D01*
X163983167Y-89576421D01*
X163855692Y-89629222D01*
X163740954Y-89705887D01*
X161583660Y-91863181D01*
X161522337Y-91896666D01*
X161495979Y-91899500D01*
X161224999Y-91899500D01*
X161224980Y-91899501D01*
X161122203Y-91910000D01*
X161122200Y-91910001D01*
X160955668Y-91965185D01*
X160955663Y-91965187D01*
X160806342Y-92057289D01*
X160682289Y-92181342D01*
X160590187Y-92330663D01*
X160590185Y-92330668D01*
X160568860Y-92395024D01*
X160535001Y-92497203D01*
X160535001Y-92497204D01*
X160535000Y-92497204D01*
X160524500Y-92599983D01*
X160524500Y-94183481D01*
X160504815Y-94250520D01*
X160488181Y-94271162D01*
X156946162Y-97813181D01*
X156884839Y-97846666D01*
X156858481Y-97849500D01*
X153970945Y-97849500D01*
X153903906Y-97829815D01*
X153858151Y-97777011D01*
X153848006Y-97741685D01*
X153839326Y-97675754D01*
X153835046Y-97643238D01*
X153835044Y-97643234D01*
X153826437Y-97622455D01*
X153818967Y-97552986D01*
X153826437Y-97527545D01*
X153835046Y-97506762D01*
X153848007Y-97408314D01*
X153876274Y-97344418D01*
X153934598Y-97305947D01*
X153962992Y-97301691D01*
X153962934Y-97301097D01*
X153968996Y-97300500D01*
X154060556Y-97282287D01*
X154104328Y-97273580D01*
X154168069Y-97247177D01*
X154231807Y-97220777D01*
X154231808Y-97220776D01*
X154231811Y-97220775D01*
X154346543Y-97144114D01*
X155544116Y-95946541D01*
X155620777Y-95831809D01*
X155622765Y-95827011D01*
X155673580Y-95704330D01*
X155673582Y-95704326D01*
X155692697Y-95608230D01*
X155700502Y-95568994D01*
X155700502Y-94373347D01*
X155720187Y-94306308D01*
X155759403Y-94267810D01*
X155881158Y-94192712D01*
X156005214Y-94068656D01*
X156041761Y-94009402D01*
X156093709Y-93962679D01*
X156147300Y-93950500D01*
X156546864Y-93950500D01*
X156613903Y-93970185D01*
X156652401Y-94009401D01*
X156719790Y-94118656D01*
X156843846Y-94242712D01*
X156993168Y-94334814D01*
X157159705Y-94389999D01*
X157262493Y-94400500D01*
X158612510Y-94400499D01*
X158715299Y-94389999D01*
X158881836Y-94334814D01*
X159031158Y-94242712D01*
X159155214Y-94118656D01*
X159247316Y-93969334D01*
X159302501Y-93802797D01*
X159313002Y-93700009D01*
X159313001Y-92799992D01*
X159311996Y-92790157D01*
X159302501Y-92697203D01*
X159302500Y-92697200D01*
X159270285Y-92599983D01*
X159247316Y-92530666D01*
X159200505Y-92454773D01*
X159182066Y-92387384D01*
X159202988Y-92320720D01*
X159240074Y-92284685D01*
X159283677Y-92257288D01*
X159386750Y-92192523D01*
X159606327Y-92017416D01*
X159804918Y-91818825D01*
X159980025Y-91599248D01*
X160129446Y-91361445D01*
X160251303Y-91108407D01*
X160344062Y-90843318D01*
X160406557Y-90569508D01*
X160407108Y-90564623D01*
X160438001Y-90290431D01*
X160438002Y-90290427D01*
X160438002Y-90009572D01*
X160438001Y-90009568D01*
X160406559Y-89730505D01*
X160406556Y-89730487D01*
X160389633Y-89656344D01*
X160344062Y-89456681D01*
X160342564Y-89452401D01*
X160269190Y-89242710D01*
X160251303Y-89191592D01*
X160129446Y-88938555D01*
X160129445Y-88938553D01*
X160127765Y-88935513D01*
X160129056Y-88934799D01*
X160111650Y-88873273D01*
X160131997Y-88806432D01*
X160185251Y-88761201D01*
X160235644Y-88750500D01*
X162640430Y-88750500D01*
X162640431Y-88750499D01*
X162783057Y-88734429D01*
X162919496Y-88719057D01*
X162919501Y-88719056D01*
X162919511Y-88719055D01*
X163193320Y-88656560D01*
X163458410Y-88563801D01*
X163711447Y-88441945D01*
X163949250Y-88292523D01*
X164168827Y-88117416D01*
X164367418Y-87918825D01*
X164542525Y-87699248D01*
X164691947Y-87461445D01*
X164813803Y-87208408D01*
X164906562Y-86943318D01*
X164969057Y-86669509D01*
X165000502Y-86390425D01*
X165000502Y-86109575D01*
X164969057Y-85830491D01*
X164906562Y-85556682D01*
X164813803Y-85291592D01*
X164691947Y-85038555D01*
X164542525Y-84800752D01*
X164367418Y-84581175D01*
X164168827Y-84382584D01*
X163949250Y-84207477D01*
X163711447Y-84058055D01*
X163711444Y-84058053D01*
X163458413Y-83936200D01*
X163193331Y-83843443D01*
X163193319Y-83843439D01*
X162919514Y-83780945D01*
X162919496Y-83780942D01*
X162640433Y-83749500D01*
X162640427Y-83749500D01*
X161000002Y-83749500D01*
X161000002Y-83000500D01*
X175125500Y-83000500D01*
X175192539Y-83020185D01*
G37*
%TD.AperFunction*%
%TD*%
%TA.AperFunction,Conductor*%
%TO.N,BAT+*%
G36*
X121997980Y-101519685D02*
G01*
X122028936Y-101548021D01*
X122030030Y-101549432D01*
X122055552Y-101614473D01*
X122041857Y-101682988D01*
X122036252Y-101691708D01*
X122036288Y-101691729D01*
X121948718Y-101839801D01*
X121902899Y-101997513D01*
X121902704Y-101999998D01*
X121902705Y-102000000D01*
X124541318Y-102000000D01*
X124608357Y-102019685D01*
X124628999Y-102036319D01*
X126063183Y-103470503D01*
X126096668Y-103531826D01*
X126099502Y-103558184D01*
X126099502Y-104341666D01*
X126099503Y-104341684D01*
X126110002Y-104444461D01*
X126110003Y-104444464D01*
X126165187Y-104610996D01*
X126165189Y-104611001D01*
X126257291Y-104760322D01*
X126367974Y-104871005D01*
X126401459Y-104932328D01*
X126396475Y-105002020D01*
X126367974Y-105046367D01*
X126257686Y-105156654D01*
X126165645Y-105305875D01*
X126165643Y-105305880D01*
X126110496Y-105472302D01*
X126110495Y-105472309D01*
X126100002Y-105575013D01*
X126100002Y-106000000D01*
X128400001Y-106000000D01*
X128400001Y-105575028D01*
X128400000Y-105575013D01*
X128389507Y-105472302D01*
X128334360Y-105305880D01*
X128334358Y-105305875D01*
X128242317Y-105156654D01*
X128132030Y-105046367D01*
X128098545Y-104985044D01*
X128103529Y-104915352D01*
X128132030Y-104871005D01*
X128184379Y-104818656D01*
X128242714Y-104760321D01*
X128334816Y-104610999D01*
X128390001Y-104444462D01*
X128400502Y-104341674D01*
X128400501Y-102991657D01*
X128390001Y-102888868D01*
X128334816Y-102722331D01*
X128242714Y-102573009D01*
X128132384Y-102462679D01*
X128098899Y-102401356D01*
X128103883Y-102331664D01*
X128132380Y-102287321D01*
X128242714Y-102176988D01*
X128334816Y-102027666D01*
X128390001Y-101861129D01*
X128400502Y-101758341D01*
X128400502Y-101624000D01*
X128420187Y-101556961D01*
X128472991Y-101511206D01*
X128524502Y-101500000D01*
X129075503Y-101500000D01*
X129142542Y-101519685D01*
X129188297Y-101572489D01*
X129199503Y-101624000D01*
X129199503Y-101758350D01*
X129210002Y-101861128D01*
X129210003Y-101861131D01*
X129265187Y-102027663D01*
X129265189Y-102027668D01*
X129357291Y-102176989D01*
X129467619Y-102287317D01*
X129501104Y-102348640D01*
X129496120Y-102418332D01*
X129467620Y-102462679D01*
X129357289Y-102573010D01*
X129265189Y-102722328D01*
X129265188Y-102722331D01*
X129210003Y-102888868D01*
X129210003Y-102888869D01*
X129210002Y-102888869D01*
X129199502Y-102991648D01*
X129199502Y-104341666D01*
X129199503Y-104341683D01*
X129210002Y-104444461D01*
X129210003Y-104444464D01*
X129265187Y-104610996D01*
X129265189Y-104611001D01*
X129357291Y-104760322D01*
X129467620Y-104870651D01*
X129501105Y-104931974D01*
X129496121Y-105001666D01*
X129467621Y-105046013D01*
X129357289Y-105156345D01*
X129265189Y-105305663D01*
X129265187Y-105305668D01*
X129265117Y-105305880D01*
X129210003Y-105472203D01*
X129210003Y-105472204D01*
X129210002Y-105472204D01*
X129199502Y-105574983D01*
X129199502Y-106925001D01*
X129199503Y-106925018D01*
X129210002Y-107027796D01*
X129210003Y-107027799D01*
X129240486Y-107119788D01*
X129265188Y-107194334D01*
X129357290Y-107343656D01*
X129481346Y-107467712D01*
X129630668Y-107559814D01*
X129797205Y-107614999D01*
X129899993Y-107625500D01*
X130800010Y-107625499D01*
X130800018Y-107625498D01*
X130800021Y-107625498D01*
X130856304Y-107619748D01*
X130902799Y-107614999D01*
X131069336Y-107559814D01*
X131218658Y-107467712D01*
X131342714Y-107343656D01*
X131434816Y-107194334D01*
X131490001Y-107027797D01*
X131500502Y-106925009D01*
X131500501Y-105946008D01*
X131520185Y-105878970D01*
X131572989Y-105833215D01*
X131642148Y-105823271D01*
X131705704Y-105852296D01*
X131730040Y-105880913D01*
X131805728Y-106003625D01*
X131824168Y-106071018D01*
X131824097Y-106073487D01*
X131750001Y-107999999D01*
X131750002Y-108000000D01*
X136112893Y-108000000D01*
X136179932Y-108019685D01*
X136225687Y-108072489D01*
X136236344Y-108132788D01*
X137167265Y-109063709D01*
X137033400Y-109160967D01*
X136910969Y-109283398D01*
X136813711Y-109417262D01*
X135885313Y-108488864D01*
X135804522Y-108586525D01*
X135804520Y-108586528D01*
X135642709Y-108841502D01*
X135642706Y-108841508D01*
X135514129Y-109114747D01*
X135514127Y-109114752D01*
X135420807Y-109401959D01*
X135364218Y-109698609D01*
X135364217Y-109698616D01*
X135345257Y-109999994D01*
X135345257Y-110000005D01*
X135364217Y-110301383D01*
X135364218Y-110301390D01*
X135420807Y-110598040D01*
X135514127Y-110885247D01*
X135514129Y-110885252D01*
X135642706Y-111158491D01*
X135642709Y-111158497D01*
X135804518Y-111413469D01*
X135885313Y-111511133D01*
X136813710Y-110582736D01*
X136910969Y-110716602D01*
X137033400Y-110839033D01*
X137167264Y-110936290D01*
X136236122Y-111867431D01*
X136222106Y-111934149D01*
X136173055Y-111983905D01*
X136112853Y-111999500D01*
X116374500Y-111999500D01*
X116307461Y-111979815D01*
X116261706Y-111927011D01*
X116250500Y-111875500D01*
X116250500Y-106924986D01*
X126100003Y-106924986D01*
X126110496Y-107027697D01*
X126165643Y-107194119D01*
X126165645Y-107194124D01*
X126257686Y-107343345D01*
X126381656Y-107467315D01*
X126530877Y-107559356D01*
X126530882Y-107559358D01*
X126697304Y-107614505D01*
X126697311Y-107614506D01*
X126800021Y-107624999D01*
X127000001Y-107624999D01*
X127500002Y-107624999D01*
X127699974Y-107624999D01*
X127699988Y-107624998D01*
X127802699Y-107614505D01*
X127969121Y-107559358D01*
X127969126Y-107559356D01*
X128118347Y-107467315D01*
X128242317Y-107343345D01*
X128334358Y-107194124D01*
X128334360Y-107194119D01*
X128389507Y-107027697D01*
X128389508Y-107027690D01*
X128400001Y-106924986D01*
X128400002Y-106924973D01*
X128400002Y-106500000D01*
X127500002Y-106500000D01*
X127500002Y-107624999D01*
X127000001Y-107624999D01*
X127000002Y-107624998D01*
X127000002Y-106500000D01*
X126100003Y-106500000D01*
X126100003Y-106924986D01*
X116250500Y-106924986D01*
X116250500Y-103799983D01*
X117999500Y-103799983D01*
X117999500Y-104400001D01*
X117999501Y-104400019D01*
X118010000Y-104502796D01*
X118010001Y-104502799D01*
X118045856Y-104611001D01*
X118065186Y-104669334D01*
X118157288Y-104818656D01*
X118281344Y-104942712D01*
X118430666Y-105034814D01*
X118597203Y-105089999D01*
X118699991Y-105100500D01*
X121100008Y-105100499D01*
X121202797Y-105089999D01*
X121369334Y-105034814D01*
X121518656Y-104942712D01*
X121642712Y-104818656D01*
X121734814Y-104669334D01*
X121789999Y-104502797D01*
X121800500Y-104400009D01*
X121800499Y-103799992D01*
X121789999Y-103697203D01*
X121734814Y-103530666D01*
X121642712Y-103381344D01*
X121518656Y-103257288D01*
X121369334Y-103165186D01*
X121202797Y-103110001D01*
X121202795Y-103110000D01*
X121100010Y-103099500D01*
X118699998Y-103099500D01*
X118699981Y-103099501D01*
X118597203Y-103110000D01*
X118597200Y-103110001D01*
X118430668Y-103165185D01*
X118430663Y-103165187D01*
X118281342Y-103257289D01*
X118157289Y-103381342D01*
X118065187Y-103530663D01*
X118065185Y-103530668D01*
X118056067Y-103558184D01*
X118010001Y-103697203D01*
X118010001Y-103697204D01*
X118010000Y-103697204D01*
X117999500Y-103799983D01*
X116250500Y-103799983D01*
X116250500Y-102500001D01*
X121902704Y-102500001D01*
X121902899Y-102502486D01*
X121948718Y-102660198D01*
X122032314Y-102801552D01*
X122032321Y-102801561D01*
X122148438Y-102917678D01*
X122148447Y-102917685D01*
X122289803Y-103001282D01*
X122289806Y-103001283D01*
X122447504Y-103047099D01*
X122447510Y-103047100D01*
X122484350Y-103049999D01*
X122484366Y-103050000D01*
X123000000Y-103050000D01*
X123500000Y-103050000D01*
X124015634Y-103050000D01*
X124015649Y-103049999D01*
X124052489Y-103047100D01*
X124052495Y-103047099D01*
X124210193Y-103001283D01*
X124210196Y-103001282D01*
X124351552Y-102917685D01*
X124351561Y-102917678D01*
X124467678Y-102801561D01*
X124467685Y-102801552D01*
X124551281Y-102660198D01*
X124597100Y-102502486D01*
X124597295Y-102500001D01*
X124597295Y-102500000D01*
X123500000Y-102500000D01*
X123500000Y-103050000D01*
X123000000Y-103050000D01*
X123000000Y-102500000D01*
X121902705Y-102500000D01*
X121902704Y-102500001D01*
X116250500Y-102500001D01*
X116250500Y-101624000D01*
X116270185Y-101556961D01*
X116322989Y-101511206D01*
X116374500Y-101500000D01*
X121930941Y-101500000D01*
X121997980Y-101519685D01*
G37*
%TD.AperFunction*%
%TA.AperFunction,Conductor*%
G36*
X146096195Y-108019685D02*
G01*
X146141950Y-108072489D01*
X146151894Y-108141647D01*
X146146862Y-108163003D01*
X146135497Y-108197299D01*
X146135495Y-108197309D01*
X146125002Y-108300013D01*
X146125002Y-108500000D01*
X147376002Y-108500000D01*
X147443041Y-108519685D01*
X147488796Y-108572489D01*
X147500002Y-108624000D01*
X147500002Y-108750000D01*
X147626002Y-108750000D01*
X147693041Y-108769685D01*
X147738796Y-108822489D01*
X147750002Y-108874000D01*
X147750002Y-109899999D01*
X148174974Y-109899999D01*
X148174988Y-109899998D01*
X148277699Y-109889505D01*
X148444121Y-109834358D01*
X148444126Y-109834356D01*
X148560905Y-109762326D01*
X148628297Y-109743886D01*
X148694961Y-109764808D01*
X148739731Y-109818450D01*
X148750002Y-109867865D01*
X148750002Y-111875500D01*
X148730317Y-111942539D01*
X148677513Y-111988294D01*
X148626002Y-111999500D01*
X139387150Y-111999500D01*
X139320111Y-111979815D01*
X139274356Y-111927011D01*
X139263813Y-111867364D01*
X138332739Y-110936290D01*
X138466604Y-110839033D01*
X138589035Y-110716602D01*
X138686292Y-110582737D01*
X139614689Y-111511134D01*
X139695488Y-111413464D01*
X139857294Y-111158497D01*
X139857297Y-111158491D01*
X139985874Y-110885252D01*
X139985876Y-110885247D01*
X140079196Y-110598040D01*
X140135785Y-110301390D01*
X140135786Y-110301383D01*
X140154747Y-110000005D01*
X140154747Y-109999994D01*
X140135786Y-109698616D01*
X140135785Y-109698609D01*
X140079196Y-109401959D01*
X140013570Y-109199986D01*
X146125003Y-109199986D01*
X146135496Y-109302697D01*
X146190643Y-109469119D01*
X146190645Y-109469124D01*
X146282686Y-109618345D01*
X146406656Y-109742315D01*
X146555877Y-109834356D01*
X146555882Y-109834358D01*
X146722304Y-109889505D01*
X146722311Y-109889506D01*
X146825021Y-109899999D01*
X147250001Y-109899999D01*
X147250002Y-109899998D01*
X147250002Y-109000000D01*
X146125003Y-109000000D01*
X146125003Y-109199986D01*
X140013570Y-109199986D01*
X139985876Y-109114752D01*
X139985874Y-109114747D01*
X139857297Y-108841508D01*
X139857294Y-108841502D01*
X139695485Y-108586530D01*
X139614688Y-108488864D01*
X138686291Y-109417261D01*
X138589035Y-109283398D01*
X138466604Y-109160967D01*
X138332738Y-109063709D01*
X139263698Y-108132749D01*
X139277858Y-108065350D01*
X139326910Y-108015594D01*
X139387111Y-108000000D01*
X146029156Y-108000000D01*
X146096195Y-108019685D01*
G37*
%TD.AperFunction*%
%TD*%
M02*
